<?xml version="1.0" encoding="utf-8"?>
<!-- Generator: Adobe Illustrator 27.5.0, SVG Export Plug-In . SVG Version: 6.00 Build 0)  -->
<svg version="1.1" id="Layer_1" xmlns="http://www.w3.org/2000/svg" xmlns:xlink="http://www.w3.org/1999/xlink" x="0px" y="0px"
	 viewBox="0 0 3000 2000" style="enable-background:new 0 0 3000 2000;" xml:space="preserve">
<g>
	<rect style="fill:#FFFFFF;" width="3000" height="2000"/>
	<path style="fill:#EBF3FA;" d="M371.964,1803.403c0,0-516.812-793.128,31.871-1010.05
		c138.207-54.64,186.419-819.602,800.316-437.121c244.138,152.106,595.675-31.963,932.324,68.645
		c309.171,92.396,316.279,358.922,277.188,454.872c-42.713,104.842,127.619,230.19,302.064,316.279
		c273.634,135.04,72.418,609.624-186.086,611.893C2271.137,1810.191,371.964,1803.403,371.964,1803.403z"/>
	<g>
		<g>
			<path style="fill:#EBF2F9;" d="M2265.514,1805.437c0,0,242.391-5.766,345.966-152.675
				c187.64-266.142,103.078-499.534-230.981-482.161c-373.706,19.435-327.616-805.576-974.699-408.366
				c-140.51,86.252-453.231-94.886-578.167,282.506c-29.709,89.741-252.822,95.991-397.017,167.958
				c-226.185,112.887-162.31,594.619,51.37,596.516C695.664,1811.11,2265.514,1805.437,2265.514,1805.437z"/>
			<path style="fill:#D2E4FF;" d="M1129.431,569.193h-11.605l-2.592-151.964L607.897,264.398L390.198,413.184l7.949-2.875
				c-6.869,0-12.488,5.62-12.488,12.488v72.851c0,6.869,5.62,12.489,12.488,12.489h106.154c6.869,0,12.489-5.62,12.489-12.489
				v-29.139h70.77v1340.456h83.258V466.509H1013.3l95.475,102.684h-19.585c-6.869,0-12.489,5.62-12.489,12.489v12.489
				c0,6.869,5.62,12.488,12.489,12.488h40.241c6.869,0,12.489-5.62,12.489-12.488v-12.489
				C1141.92,574.813,1136.3,569.193,1129.431,569.193z M516.601,420.717c-1-5.886-6.141-10.408-12.3-10.408H404.66L609.105,272.37
				l492.451,148.347H516.601z M1023.248,466.509l85.189,1.595l2.104,92.29L1023.248,466.509z"/>
			<path style="fill:#D2E4FF;" d="M2594.571,645.77l5.868,2.347l-149.745-102.434l-348.008,104.834l-1.777,104.24h-7.961
				c-4.711,0-8.566,3.856-8.566,8.567v8.567c0,4.711,3.855,8.566,8.566,8.566h27.604c4.711,0,8.566-3.855,8.566-8.566v-8.567
				c0-4.711-3.854-8.567-8.566-8.567h-13.435l65.49-70.436h234.925v919.483h57.111V684.32h48.545v19.988
				c0,4.712,3.854,8.566,8.565,8.566h72.817c4.712,0,8.566-3.855,8.566-8.566v-49.972
				C2603.138,649.625,2599.283,645.77,2594.571,645.77z M2105.906,748.72l1.864-64.4h58.014L2105.906,748.72z M2521.754,645.77
				c-4.224,0-7.751,3.102-8.436,7.139h-401.25l337.796-101.758l140.239,94.618H2521.754z"/>
			<g>
				<rect x="1425.19" y="313.062" style="fill:#D2E4FF;" width="480.471" height="1495.137"/>
				<g>
					<rect x="1425.19" y="519.361" style="opacity:0.5;fill:#AED3FF;" width="347.765" height="219.037"/>
					<rect x="1425.19" y="920.451" style="opacity:0.5;fill:#AED3FF;" width="347.765" height="219.038"/>
					<rect x="1425.19" y="1316.365" style="opacity:0.5;fill:#AED3FF;" width="347.765" height="219.038"/>
				</g>
				<polygon style="fill:#AED3FF;" points="2504.629,1534 2439.789,1534 2439.789,1331.453 1905.661,1331.453 1905.661,313.062 
					1772.955,313.062 1772.955,1809.04 1905.661,1809.04 1905.661,1808.199 2439.789,1808.199 2439.789,1808.199 2504.629,1808.199 
									"/>
			</g>
			<path style="fill:#D2E4FF;" d="M1277.49,731.335v-8.07h-17.661v-53.261h-14.617v53.261h-37.029v-53.261h-14.617v53.261h-40.257
				v-53.261h-14.618v53.261h-37.029v-53.261h-14.617v53.261h-19.368v8.07h19.368v25.931h-19.368v8.07h19.368v25.931h-19.368v8.069
				h19.368v25.931h-19.368v8.069h19.368v25.931h-19.368v8.07h19.368v25.931h-19.368v8.07h19.368v20.981h-19.368v8.07h19.368v25.931
				h-19.368v8.07h19.368v25.931h-19.368v8.07h19.368v25.931h-19.368v8.069h19.368v25.931h-19.368v8.07h19.368v25.931h-19.368v8.069
				h19.368v24.748h-19.368v8.069h19.368v25.93h-19.368v8.071h19.368v25.93h-19.368v8.07h19.368v25.931h-19.368v8.07h19.368v25.93
				h-19.368v8.069h19.368v25.931h-19.368v8.069h19.368v20.982h-19.368v8.07h19.368v25.931h-19.368v8.069h19.368v25.931h-19.368v8.07
				h19.368v25.93h-19.368v8.071h19.368v25.93h-19.368v8.07h19.368v25.93h-19.368v8.07h19.368v23.133h-19.368v8.069h19.368v25.931
				h-19.368v8.069h19.368v25.931h-19.368v8.069h19.368v25.931h-19.368v8.069h19.368v25.93h-19.368v8.069h19.368v25.931h-19.368v8.07
				h19.368v20.982h-19.368v8.07h19.368v25.93h-19.368v8.069h19.368v25.931h-19.368v8.069h209.814v-8.069h-17.661v-25.931h17.661
				v-8.069h-17.661v-25.93h17.661v-8.07h-17.661v-20.982h17.661v-8.07h-17.661v-25.931h17.661v-8.069h-17.661v-25.93h17.661v-8.069
				h-17.661v-25.931h17.661v-8.069h-17.661v-25.931h17.661v-8.069h-17.661v-25.931h17.661v-8.069h-17.661v-23.133h17.661v-8.07
				h-17.661v-25.93h17.661v-8.07h-17.661v-25.93h17.661v-8.071h-17.661v-25.93h17.661v-8.07h-17.661v-25.931h17.661v-8.069h-17.661
				v-25.931h17.661v-8.07h-17.661v-20.982h17.661v-8.069h-17.661v-25.931h17.661v-8.069h-17.661v-25.93h17.661v-8.07h-17.661
				v-25.931h17.661v-8.07h-17.661v-25.93h17.661v-8.071h-17.661v-25.93h17.661v-8.069h-17.661v-24.748h17.661v-8.069h-17.661
				v-25.931h17.661v-8.07h-17.661v-25.931h17.661v-8.069h-17.661v-25.931h17.661v-8.07h-17.661v-25.931h17.661v-8.07h-17.661V930.39
				h17.661v-8.07h-17.661v-20.981h17.661v-8.07h-17.661v-25.931h17.661v-8.07h-17.661v-25.931h17.661v-8.069h-17.661v-25.931h17.661
				v-8.069h-17.661v-25.931h17.661v-8.07h-17.661v-25.931H1277.49z M1193.565,731.335v25.931h-40.257v-25.931H1193.565z
				 M1153.308,1758.458v-25.93h40.257v25.93H1153.308z M1193.565,1766.527v25.931h-40.257v-25.931H1193.565z M1153.308,1724.457
				v-20.982h40.257v20.982H1153.308z M1153.308,1695.406v-25.931h40.257v25.931H1153.308z M1153.308,1661.405v-25.93h40.257v25.93
				H1153.308z M1153.308,1627.405v-25.931h40.257v25.931H1153.308z M1153.308,1593.404v-25.931h40.257v25.931H1153.308z
				 M1153.308,1559.403v-25.931h40.257v25.931H1153.308z M1153.308,1525.402v-23.133h40.257v23.133H1153.308z M1153.308,1494.199
				v-25.93h40.257v25.93H1153.308z M1153.308,1460.198v-25.93h40.257v25.93H1153.308z M1153.308,1426.197v-25.93h40.257v25.93
				H1153.308z M1153.308,1392.196v-25.931h40.257v25.931H1153.308z M1153.308,1358.197v-25.931h40.257v25.931H1153.308z
				 M1153.308,1324.196v-20.982h40.257v20.982H1153.308z M1153.308,1295.144v-25.931h40.257v25.931H1153.308z M1153.308,1261.144
				v-25.93h40.257v25.93H1153.308z M1153.308,1227.143v-25.931h40.257v25.931H1153.308z M1153.308,1193.142v-25.93h40.257v25.93
				H1153.308z M1153.308,1159.141v-25.93h40.257v25.93H1153.308z M1153.308,1125.141v-24.748h40.257v24.748H1153.308z
				 M1153.308,1092.324v-25.931h40.257v25.931H1153.308z M1153.308,1058.323v-25.931h40.257v25.931H1153.308z M1153.308,1024.322
				v-25.931h40.257v25.931H1153.308z M1153.308,990.321v-25.931h40.257v25.931H1153.308z M1153.308,956.321V930.39h40.257v25.931
				H1153.308z M1153.308,922.32v-20.981h40.257v20.981H1153.308z M1153.308,893.269v-25.931h40.257v25.931H1153.308z
				 M1153.308,859.268v-25.931h40.257v25.931H1153.308z M1153.308,825.268v-25.931h40.257v25.931H1153.308z M1153.308,791.267
				v-25.931h40.257v25.931H1153.308z M1101.661,731.335h37.029v25.931h-37.029V731.335z M1101.661,765.336h37.029v25.931h-37.029
				V765.336z M1101.661,799.336h37.029v25.931h-37.029V799.336z M1101.661,833.337h37.029v25.931h-37.029V833.337z
				 M1101.661,867.338h37.029v25.931h-37.029V867.338z M1101.661,901.339h37.029v20.981h-37.029V901.339z M1101.661,930.39h37.029
				v25.931h-37.029V930.39z M1101.661,964.391h37.029v25.931h-37.029V964.391z M1101.661,998.391h37.029v25.931h-37.029V998.391z
				 M1101.661,1032.391h37.029v25.931h-37.029V1032.391z M1101.661,1066.392h37.029v25.931h-37.029V1066.392z M1101.661,1100.393
				h37.029v24.748h-37.029V1100.393z M1101.661,1133.21h37.029v25.93h-37.029V1133.21z M1101.661,1167.211h37.029v25.93h-37.029
				V1167.211z M1101.661,1201.212h37.029v25.931h-37.029V1201.212z M1101.661,1235.213h37.029v25.93h-37.029V1235.213z
				 M1101.661,1269.213h37.029v25.931h-37.029V1269.213z M1101.661,1303.214h37.029v20.982h-37.029V1303.214z M1101.661,1332.265
				h37.029v25.931h-37.029V1332.265z M1101.661,1366.266h37.029v25.931h-37.029V1366.266z M1101.661,1400.267h37.029v25.93h-37.029
				V1400.267z M1101.661,1434.268h37.029v25.93h-37.029V1434.268z M1101.661,1468.269h37.029v25.93h-37.029V1468.269z
				 M1101.661,1502.269h37.029v23.133h-37.029V1502.269z M1101.661,1533.472h37.029v25.931h-37.029V1533.472z M1101.661,1567.473
				h37.029v25.931h-37.029V1567.473z M1101.661,1601.474h37.029v25.931h-37.029V1601.474z M1101.661,1635.474h37.029v25.93h-37.029
				V1635.474z M1101.661,1669.474h37.029v25.931h-37.029V1669.474z M1101.661,1703.475h37.029v20.982h-37.029V1703.475z
				 M1101.661,1732.527h37.029v25.93h-37.029V1732.527z M1101.661,1766.527h37.029v25.931h-37.029V1766.527z M1245.212,1792.459
				h-37.029v-25.931h37.029V1792.459z M1245.212,1758.458h-37.029v-25.93h37.029V1758.458z M1245.212,1724.457h-37.029v-20.982
				h37.029V1724.457z M1245.212,1695.406h-37.029v-25.931h37.029V1695.406z M1245.212,1661.405h-37.029v-25.93h37.029V1661.405z
				 M1245.212,1627.405h-37.029v-25.931h37.029V1627.405z M1245.212,1593.404h-37.029v-25.931h37.029V1593.404z M1245.212,1559.403
				h-37.029v-25.931h37.029V1559.403z M1245.212,1525.402h-37.029v-23.133h37.029V1525.402z M1245.212,1494.199h-37.029v-25.93
				h37.029V1494.199z M1245.212,1460.198h-37.029v-25.93h37.029V1460.198z M1245.212,1426.197h-37.029v-25.93h37.029V1426.197z
				 M1245.212,1392.196h-37.029v-25.931h37.029V1392.196z M1245.212,1358.197h-37.029v-25.931h37.029V1358.197z M1245.212,1324.196
				h-37.029v-20.982h37.029V1324.196z M1245.212,1295.144h-37.029v-25.931h37.029V1295.144z M1245.212,1261.144h-37.029v-25.93
				h37.029V1261.144z M1245.212,1227.143h-37.029v-25.931h37.029V1227.143z M1245.212,1193.142h-37.029v-25.93h37.029V1193.142z
				 M1245.212,1159.141h-37.029v-25.93h37.029V1159.141z M1245.212,1125.141h-37.029v-24.748h37.029V1125.141z M1245.212,1092.324
				h-37.029v-25.931h37.029V1092.324z M1245.212,1058.323h-37.029v-25.931h37.029V1058.323z M1245.212,1024.322h-37.029v-25.931
				h37.029V1024.322z M1245.212,990.321h-37.029v-25.931h37.029V990.321z M1245.212,956.321h-37.029V930.39h37.029V956.321z
				 M1245.212,922.32h-37.029v-20.981h37.029V922.32z M1245.212,893.269h-37.029v-25.931h37.029V893.269z M1245.212,859.268h-37.029
				v-25.931h37.029V859.268z M1245.212,825.268h-37.029v-25.931h37.029V825.268z M1245.212,791.267h-37.029v-25.931h37.029V791.267z
				 M1245.212,757.266h-37.029v-25.931h37.029V757.266z"/>
			<g>
				<rect x="1450.059" y="238.57" style="fill:#D2E4FF;" width="5.173" height="92.081"/>
				<rect x="1736.647" y="238.57" style="fill:#D2E4FF;" width="5.173" height="92.081"/>
				<rect x="1486.27" y="238.57" style="fill:#D2E4FF;" width="5.173" height="92.081"/>
				<rect x="1762.513" y="238.57" style="fill:#D2E4FF;" width="5.173" height="92.081"/>
			</g>
		</g>
		<g>
			<g>
				<path style="fill:#233862;" d="M1905.594,1803.948c0,0,0.987-21.407,6.729-32.889s51.671-3.588,51.671-3.588
					s10.585,19.153,9.15,36.376L1905.594,1803.948z"/>
				<path style="fill:#233862;" d="M1782.337,1803.948c0,0,0.987-21.407,6.729-32.889s51.671-3.588,51.671-3.588
					s10.585,19.153,9.15,36.376L1782.337,1803.948z"/>
				<path style="fill:#D9935C;" d="M1935.359,895.474c-5.737,4.155-57.667,31.261-57.667,31.261l-54.761-39.044
					c0,0,16.632-2.422,17.073-2.552c4.942-1.378,4.715-14.629,5.339-28.742c0.097-2.175,0.216-4.371,0.377-6.545l53.62-1.948
					l0.043,0.667c0.043,0.678,0.097,1.389,0.151,2.132l0.107,1.529c0.033,0.527,0.076,1.055,0.118,1.604
					c0.969,12.401,3.036,29.915,6.997,31.961C1909.007,886.959,1924.271,886.776,1935.359,895.474z"/>
				<path style="fill:#CB7D45;" d="M1899.76,853.836c-4.424,8.849-14.274,24.253-28.882,23.747
					c-13.951-0.495-21.895-13.176-25.534-21.185c0.097-2.175,0.216-4.371,0.377-6.545l53.62-1.948l0.043,0.667l0.151,2.132
					l0.107,1.529C1899.674,852.759,1899.717,853.287,1899.76,853.836z"/>
				<path style="fill:#2B478B;" d="M1839.342,730.306c0,0,25.864-25.754,56.376,0.522
					C1895.719,730.828,1877.577,727.063,1839.342,730.306z"/>
				<path style="fill:#B64C41;" d="M1829.742,825.041c0,0-8.186-16.959-13.243-36.706c-3.61-14.098-0.305-67.608,53.49-63.973
					c0,0,15.573,0.364,30.839,9.088c12.141,6.938,30.082,22.536,14.903,70.152l-3.672,15.976L1829.742,825.041z"/>
				<path style="fill:#D9935C;" d="M1905.001,847.515c-13.887,13.278-31.14,30.971-68.328-1.75
					c-7.276-6.401-6.782-16.244-7.206-30.379c-0.511-16.732-4.537-26.977-2.668-36.623c2.22-11.539,12.087-16.752,32.568-18.535
					c37.601-3.264,56.606,5.207,54.081,23.866C1907.813,825.739,1919.123,834.013,1905.001,847.515z"/>
				<path style="fill:#B64C41;" d="M1874.357,759.543c0,0,22.29-0.469,27.379,6.983c5.089,7.451,5.795,15.791,8.36,19.992
					c2.565,4.2,2.142,8.916,2.142,8.916l4.945-33.269l-30.169-5.997L1874.357,759.543z"/>
				<path style="fill:#9ED9F0;" d="M2004.362,943.065c0,0-9.517,28.053-48.109,33.188c-1.044,0.14-2.12,0.259-3.208,0.366H1795.88
					c0,0-0.291-0.086-0.84-0.258c-6.103-1.938-43.652-14.802-47.602-38.861c0,0,19.742-40.54,34.813-45.568
					c4.392-1.474,10.475-2.572,16.869-3.401c6.534-0.839,13.412-1.4,19.182-1.766c7.944-0.495,13.779-0.624,13.779-0.624
					s12.24,24.813,42.026,24.447c29.787-0.356,36.687-24.081,36.687-24.081s8.364,0.237,19.474,1.443
					c6.125,0.656,13.079,1.604,19.936,2.971c11.616,2.314,22.93,5.802,29.399,11.055
					C1996.826,915.97,2004.362,943.065,2004.362,943.065z"/>
				<path style="fill:#2B478B;" d="M1966.976,1160.031c-1.671-9.292-4.161-23.435-6.114-35.873
					c0.013-0.168,5.826-70.228,7.976-82.055c2.153-11.841-12.476-76.269-12.476-76.269c-3.401-9.861-9.171-12.875-13.597-12.875
					l7.438-62.038c-6.857-1.367-13.81-2.315-19.936-2.971l-3.563,65.009l-0.054,0.937c-8.149,0.452-18.311,1.001-27.773,1.421
					c-9.462,0.431-18.225,0.743-23.619,0.743c-10.969,0-36.137-1.259-52.855-2.175l-0.065-0.926l-4.036-66.193
					c-5.77,0.366-12.649,0.926-19.182,1.766l7.104,64.427v0.01c-4.682,0-10.065,8.311-10.808,12.928l-0.724,20.158
					c-3.538,10.147-10.869,32.69-12.085,48.511c-1.61,20.918,7.129,93.688,7.189,94.191c-0.319,8.675-0.934,19.761-2.119,30.488
					c-6.567,17.794-34.577,100.543-31.723,211.809c2.659,103.87,4.23,281.349,16.47,367.521c1.989,13.986,4.256,25.566,6.856,34.037
					c1.311,4.27,5.003,7.364,9.429,7.978c14.035,1.946,45.671,5.532,59.285,0.582c6.524-2.379,11.196-38.603,14.5-85.301
					c3.165-44.771,5.071-99.176,6.125-142.602c0.011,0,0.011-0.011,0.011-0.021c0.851-34.62,1.173-62.253,1.173-72.48
					c0-23.144,5.469-91.048,7.277-130.986c0.054-1.13,1.701-1.141,1.776-0.021c0,0.01,0,0.01,0,0.01
					c2.744,47.419,12.325,119.328,12.476,135.303c0.355,38.753-1.899,287.735,15.039,296.098c12.95,6.394,43.469,1.561,58.048-0.412
					c5.275-0.714,9.606-4.472,11.092-9.583c18.216-62.646,19.827-280.329,22.9-400.122
					C2001.218,1261.348,1974.037,1179.364,1966.976,1160.031z"/>
				<path style="fill:#D9935C;" d="M1824.233,1204.833c-5.382,4.306-22.96,2.508-29.775-3.229
					c-6.826-5.749-20.453-3.951-23.683-6.104c-0.226-0.15-63.695-75.364-70.574-107.013
					c-6.943-31.939,36.988-119.834,49.422-143.797c9.203,19.441,39.862,29.937,45.331,31.67c0.549,0.172,0.839,0.258,0.839,0.258
					h1.701c-10.345,27.968-41.272,78.314-53.189,97.282c-2.96,4.715-3.337,10.614-0.99,15.673
					c15.307,32.823,30.281,60.51,36.837,79.692c1.302,2.132,4.102,5.942,7.481,5.426c4.673-0.721,19.743-3.951,27.279,7.169
					C1822.447,1192.992,1829.616,1200.527,1824.233,1204.833z"/>
				<g>
					<path style="fill:#FFA412;" d="M1920.849,731.064c0,0-4.135-5.617-11.545-11.913c-1.174-1.013-2.437-2.036-3.78-3.05
						c-13.626-10.368-35.436-20.491-61.727-9.522c-7.124,2.971-13.048,7.004-17.967,11.676c-1.165,1.102-2.267,2.233-3.309,3.404
						c-22.796,25.292-20.865,64.955-20.865,64.955l131.538-1.407C1933.621,748.486,1920.849,731.064,1920.849,731.064z"/>
					<path style="fill:#E27F2B;" d="M1896.244,785.604c-0.369-5.533-2.886-50.917,13.06-66.437
						c-1.174-1.022-0.894-0.843-2.237-1.865c-17.003,17.845-18.095,62.538-18.028,68.379l-42.049,0.449
						c-1.247-32.216-19.026-64.294-21.161-67.874c-1.165,1.102-1.385,1.318-2.426,2.489c3.085,5.428,14.695,36.487,15.804,65.468
						l-37.553,0.402c0,0,35.034,9.057,61.421,8.729c26.387-0.328,70.118-10.136,70.118-10.136L1896.244,785.604z"/>
				</g>
				<path style="fill:#B64C41;" d="M1829.209,959.751c-13.456,25.835-51.671,30.68-51.671,30.68
					c12.38-30.142-12.562-39.647-27.989-70.51c-15.426-30.863,11.842-51.316,11.842-51.316
					c-16.869,3.229-20.098,25.835-20.098,25.835c-1.432-15.07,11.13-40.54,50.961-45.568c29.162-3.682,36.202-13.51,37.881-18.515
					c0.657,6.491,2.229,11.572,6.589,15.404c3.079,2.713,6.028,5.07,8.838,7.126c-0.065,1.174-0.118,2.347-0.172,3.51
					c-0.172,3.972-0.28,7.88-0.463,11.464c-5.21,6.211-5.059,12.821-4.177,16.976c0.549,2.583,1.379,4.22,1.379,4.22
					c4.177,5.802,6.297,11.508,6.911,17.213C1850.889,923.344,1839.296,940.385,1829.209,959.751z"/>
				<path style="fill:#233862;" d="M1966.674,1158.34l-5.813-34.178c-28.303,10.499-55.063,15.076-78.687,16.336
					c-2.777-5.125-7.854-8.89-14.011-9.781l-20.873-3.019c-8.239-1.192-15.995,3.098-19.615,10.103
					c-20.046-3.104-33.581-7.651-37.867-9.215l-0.01,0.183l-2.078,30.012v0.075c12.053,3.206,23.62,5.699,34.671,7.597l-0.616,4.176
					c-1.533,10.379,5.626,20.041,16.003,21.596l23.133,3.468c11.033,1.654,21.116-6.495,21.811-17.63l0.403-6.437
					C1927.22,1171.402,1956.522,1162.129,1966.674,1158.34z"/>
				<path style="fill:#D9935C;" d="M2051.253,1088.488c-6.879,31.648-70.349,106.862-70.574,107.013
					c-0.549,0.366-1.41,0.624-2.487,0.819c-0.042,0.011-0.075,0.011-0.118,0.021c-5.243,0.905-15.47,0.527-21.078,5.264
					c-6.814,5.737-24.404,7.535-29.786,3.229c-5.382-4.306,1.798-11.841,9.333-22.972c7.536-11.12,22.606-7.89,27.267-7.169
					c2.777,0.419,5.179-2.078,6.652-4.166c0.033-0.043,0.055-0.076,0.087-0.118c0.279-0.409,0.538-0.797,0.743-1.142
					c6.416-18.763,20.873-45.632,35.814-77.507c2.993-6.373,2.552-13.843-1.184-19.818c-9.979-15.942-30.239-49.066-43.275-75.644
					c-1.517-7.686-3.035-14.91-4.209-20.378c28.634-4.607,40.486-22.025,44.318-29.453
					C2016.289,972.723,2058.035,1057.291,2051.253,1088.488z"/>
			</g>
			<g id="P297LW_1_">
				<path style="fill:#FFA412;" d="M2196.078,1079.69c11.362,34.778,73.284,94.895,81.843,100.889c0,0,14.407-24.012,11.525-37.459
					c-2.353-10.978-26.461-50.108-34.712-69.337c-0.432-0.999-0.816-1.95-1.153-2.834c-1.133-2.949-1.729-5.235-1.594-6.589
					c0.414-4.178,13.543-14.34,28.805-26.394c19.834-15.675,43.27-34.529,47.073-47.563c6.723-23.051,30.015-114.326,30.015-114.326
					s-57.869,12.515-74.197,26.922c-16.328,14.407-86.443,134.468-89.325,165.203
					C2194.042,1071.554,2194.676,1075.435,2196.078,1079.69z"/>
				<path style="fill:#D9935C;" d="M2196.078,1079.69c11.362,34.778,73.284,94.895,81.843,100.889c0,0,14.407-24.012,11.525-37.459
					c-2.478-11.545-29.026-54.248-35.864-72.171C2243.295,1069.163,2219.139,1066.973,2196.078,1079.69z"/>
				<path style="fill:#D9935C;" d="M2357.862,868.057l0.038,7.088c0,0-1.93,22.167,25.366,25.405
					c27.297,3.246,47.851-6.656,47.111-23.762c-2.458-13.245-5.033-24.329-5.215-35.288c-0.067-4.073,0.211-8.395,0.97-13.274
					l-52.893-1.057l-15.579,2.546L2357.862,868.057z"/>
				<path style="fill:#CB7D45;" d="M2357.66,829.715l0.202,38.342c5.619,2.612,11.958,4.207,19.065,4.207
					c24.31,0,40.023-17.826,48.236-30.764c-0.067-4.073,0.211-8.395,0.97-13.274l-52.893-1.057L2357.66,829.715z"/>
				<path style="fill:#233862;" d="M2404.484,1808.012c0,0,2.567-20,8.513-31.891c5.945-11.891,43.781-4.324,43.781-4.324
					s7.567,6.486,9.189,36.754L2404.484,1808.012z"/>
				<path style="fill:#233862;" d="M2275.575,1807.947c8.89-5.427,3.831-45.909,3.831-45.909s-41.427-33.141-47.122-7.768
					c-5.697,25.374-39.356,36.766-58.515,39.874c-13.227,2.144-17.321,9.47-18.59,13.802H2275.575z"/>
				<path style="fill:#2B478B;" d="M2361.383,1509.012c-1.686,9.292-2.756,16.913-3.04,22.377
					c-3.851,75.118-63.232,246.872-73.853,250.877c-16.434,6.202-42.314-6.98-55.854-11.294c-5.611-1.792-9.396-7.451-8.148-13.191
					c29.407-135.188,40.214-329.853,44.147-445.105c1.986-58.05,11.95-98.151,11.95-98.151s144.828-38.641,145.687,10.24
					C2423.034,1268.019,2374.299,1437.656,2361.383,1509.012z"/>
				<path style="fill:#233862;" d="M2361.383,1509.012l-96.749-196.337c1.986-58.05,11.95-98.151,11.95-98.151
					s144.828-38.641,145.687,10.24C2423.034,1268.019,2374.299,1437.656,2361.383,1509.012z"/>
				<path style="fill:#2B478B;" d="M2329.16,1224.935l76.562,554.898c0,0,33.622,8.107,59.772,1.621
					c0,0,22.415-295.12,20.547-366.468c-1.868-71.348,16.087-190.914-4.098-204.1
					C2461.758,1197.7,2329.16,1224.935,2329.16,1224.935z"/>
				<path style="fill:#FFA412;" d="M2272.417,1225.962c0,0,39.12,22.811,95.789,22.167c22.091-0.249,41.31-1.901,57.619-4.332
					c45.45-6.742,68.386-19.43,68.204-24.155c-0.154-4.265-0.451-18.432-0.989-24.522c-7.223-83.293-3.487-148.077-13.207-196.745
					c-0.115-0.586-0.23-1.172-0.355-1.748c-12.861-61.875-33.021-97.422-43.029-112.002c-3.66-5.321-5.955-7.837-6.071-7.837
					c0,11.545-24.588,21.515-44.634,20.208c-16.885-1.104-27.844-13.946-27.844-20.9l-0.019-0.019
					c-1.383,0-76.166,51.981-76.233,100.284C2281.388,1192.834,2268.268,1226.038,2272.417,1225.962z"/>
				<path style="fill:#E27F2B;" d="M2425.719,1243.087c0.039,0.24,0.068,0.48,0.106,0.71c45.45-6.742,68.386-19.43,68.204-24.155
					c-0.154-4.265-0.451-18.432-0.989-24.522c-7.223-83.293-3.487-148.077-13.207-196.745
					C2455.975,1030.263,2406.933,1113.777,2425.719,1243.087z"/>
				<g>
					<path style="fill:#E9F3FE;" d="M2301.221,1139.55l6.109,20.324l6.07,20.17l263.652-79.307c0.375,0.019,0.74-0.02,1.085-0.125
						c0.365-0.106,0.701-0.278,1.018-0.499c3.323-2.353,3.929-10.969,1.374-20.679c-0.135-0.538-0.288-1.076-0.451-1.623
						c-3.083-10.441-8.692-18.163-12.995-18.23c-0.355-0.01-0.691,0.038-1.028,0.134c-0.346,0.106-0.663,0.26-0.97,0.471
						L2301.221,1139.55z"/>
					<path style="fill:#BED4F4;" d="M2307.33,1159.874l6.07,20.17l263.652-79.307c0.375,0.019,0.74-0.02,1.085-0.125
						c0.365-0.106,0.701-0.278,1.018-0.499c3.323-2.353,3.929-10.969,1.374-20.679c-10.777,8.088-62.249,43.866-150.104,61.269
						C2339.612,1158.693,2311.508,1159.817,2307.33,1159.874z"/>
					<path style="fill:#AFCDFB;" d="M2300.716,1139.433c4.408-1.302,10.688,6.799,14.023,18.094
						c3.336,11.295,2.466,21.507-1.943,22.81c-4.409,1.302-10.688-6.799-14.023-18.094
						C2295.437,1150.947,2296.306,1140.735,2300.716,1139.433z"/>
				</g>
				<g>
					<path style="fill:#E9F3FE;" d="M2563.174,1052.738l31.081-5.042c0.336-0.163,0.663-0.278,1.028-0.336
						c0.346-0.048,0.682-0.058,1.028,0c4.264,0.634,8.808,9.019,10.498,19.776c0.096,0.567,0.173,1.114,0.24,1.671
						c0.605,4.764,0.519,9.172-0.115,12.698c-0.692,3.775-2.027,6.522-3.851,7.55c-0.039,0.028-0.077,0.047-0.106,0.067
						c-0.346,0.182-0.701,0.307-1.076,0.364c-0.355,0.058-0.721,0.048-1.095-0.019l-271.768,44.096l-3.371-20.785l-3.391-20.948
						L2563.174,1052.738z"/>
					<path style="fill:#BED4F4;" d="M2450.212,1109.887c58.128-3.735,88.941-34.471,112.962-57.148l31.081-5.042
						c0.336-0.163,0.663-0.278,1.028-0.336c0.346-0.048,0.682-0.058,1.028,0c4.264,0.634,8.808,9.019,10.498,19.776
						c0.096,0.567,0.173,1.114,0.24,1.671c0.605,4.764,0.519,9.172-0.115,12.698c-1.46,4.13-2.958,6.934-3.851,7.55
						c-0.039,0.028-0.077,0.047-0.106,0.067c-0.346,0.182-0.701,0.307-1.076,0.364c-0.355,0.058-0.721,0.048-1.095-0.019
						l-271.768,44.096l-3.371-20.785C2329.815,1113.268,2357.823,1115.832,2450.212,1109.887z"/>
					<path style="fill:#AFCDFB;" d="M2321.785,1091.644c4.542-0.714,9.705,8.14,11.533,19.775
						c1.828,11.635-0.372,21.646-4.913,22.359c-4.542,0.714-9.705-8.139-11.534-19.775
						C2315.044,1102.368,2317.243,1092.357,2321.785,1091.644z"/>
				</g>
				<path style="fill:#D9935C;" d="M2418.468,1171.617c63.036-10.027,104.702-36.441,121.808-49.215
					c5.84-4.361,8.817-7.136,8.817-7.136c32.301-67.906-26.135-186.967-36.815-207.147c-11.526-21.765-81.901-31.331-81.901-31.331
					s11.238,33.059,15.627,76.156c4.389,43.097,51.222,127.101,49.302,134.151c-0.48,1.776-6.137,5.503-14.388,10.21
					c-24.464,13.927-71.738,36.383-74.61,41.656C2402.466,1146.001,2418.468,1171.617,2418.468,1171.617z"/>
				<path style="fill:#D9935C;" d="M2406.305,1138.958c0,0-35.218-14.088-43.862-8.325c-8.645,5.763-23.052,14.407-23.052,20.17
					c0,5.764,18.25,21.131,33.617,25.934c15.367,4.802,45.462-5.123,45.462-5.123L2406.305,1138.958z"/>
				<path style="fill:#FFA412;" d="M2446.005,952.944c4.389,43.097,51.222,127.101,49.302,134.151
					c-0.48,1.776-6.137,5.503-14.388,10.21c0.519,0.039,1.047,0.048,1.585,0.029c36.844-1.624,53.518,18.758,57.773,25.068
					c5.84-4.361,8.817-7.136,8.817-7.136c32.301-67.906-26.135-186.967-36.815-207.147c-11.526-21.765-81.901-31.331-81.901-31.331
					S2441.616,909.847,2446.005,952.944z"/>
				<path style="fill:#D9935C;" d="M2354.573,848.346c0,0,67.743,13.685,75.616-28.634c7.873-42.318,21.918-69.052-21.001-79.579
					c-42.92-10.526-54.352,4.054-60.415,17.54C2342.71,771.159,2337.154,843.696,2354.573,848.346z"/>
				<path style="fill:#233862;" d="M2428.835,831.914c0,0,13.096-27.951,24.019-40.362c10.922-12.412,4.965-74.469-42.199-72.483
					c-47.164,1.986-64.044,35.745-64.54,42.199c-0.496,6.454,37.731,1.489,48.157,9.929c10.426,8.44,0.497,22.341,12.411,27.305
					c11.915,4.965,21.348,4.965,19.362,15.887C2424.059,825.311,2428.835,831.914,2428.835,831.914z"/>
				<path style="fill:#FFA412;" d="M2414.28,690.253c13.495,3.391,23.618,8.807,31.177,15.329c0.749,0.644,1.479,1.306,2.18,1.979
					l0.01,0.01c27.969,26.672,16.808,69.125,16.808,69.125s-3.724,10.725-6.285,14.888c-2.561,4.162-39.7-0.64-41.621-8.645
					c-1.921-8.004-9.285-16.328-9.285-16.328s-39.147-2.69-41.781-2.881c-8.844-0.641-34.084-9.422-34.084-9.422
					C2331.688,751.829,2345.894,673.079,2414.28,690.253z"/>
				<path style="fill:#E27F2B;" d="M2308.209,745.989c4.697-1.148,12.705-2.426,25.9-2.91c0,0,11.08,9.178,33.107,16.173
					c10.353-13.044,39.842-44.478,78.241-53.671c0.115-0.028,0.221-0.058,0.336-0.086c0.816,1.027,1.278,1.373,1.844,2.065
					l0.01,0.01c0.173,0.201,0.355,0.442,0.557,0.739c-31.26,5.447-60.972,40.556-71.17,53.699
					c8.751,2.152,18.817,3.852,30.231,4.602c0,0-68.42,1.276-99.691-15.19C2305.191,750.167,2305.593,746.628,2308.209,745.989z"/>
				<path style="fill:#E27F2B;" d="M2238.541,1056.676c1.268,7.185,5.138,14.743,16.193,17.106c-0.432-0.999-0.816-1.95-1.153-2.834
					c-1.133-2.949-1.729-5.235-1.594-6.589c0.414-4.178,13.543-14.34,28.805-26.394c1.258-6.839,4.332-27.133,0.01-43.241
					C2275.519,975.036,2237.1,1048.512,2238.541,1056.676z"/>
				<path style="fill:#E27F2B;" d="M2488.266,1092.455c0,0,47.063-3.842,62.431,23.531c0,0-1.313,9.23-10.421,6.416
					c0,0-39.812-27.21-59.358-25.097C2480.918,1097.305,2483.944,1092.535,2488.266,1092.455z"/>
				<path style="fill:#E27F2B;" d="M2254.734,1073.783c0,0-24.418,1.023-55.153,14.409c0,0-6.823-6.703-4.102-10.545
					C2198.2,1073.805,2241.473,1059.994,2254.734,1073.783z"/>
			</g>
		</g>
		<g>
			<path style="fill:#739AF0;" d="M1233.745,1123.59c11.034,2.549,60.887,3.155,95.895-4.712c7.298-1.634,13.965-3.637,19.482-6.075
				c6.594-2.907,11.566-6.42,14.102-10.651c3.958-6.593,11.195-29.157,19.707-58.746c23.442-81.508,56.433-216.195,56.433-216.195
				s-66.243,13.52-80.258,25.062c-14.028,11.541-25.333,196.09-38.52,201.039c-1.942,0.729-6.095,1.877-10.388,3.992
				c-0.21,0.099,0,0-0.21,0.099c-2.56,1.262-3.763,2.098-6.88,3.705c-27.35,14.052-74.979,39.127-79.667,44.756
				C1217.255,1113.286,1217.663,1119.88,1233.745,1123.59z"/>
			<path style="fill:#739AF0;" d="M1360.85,931.443c0-3.117,0.309-6.235,0.878-9.365c8.523-46.871,76.3-94.868,77.636-94.868
				l0.012,0.977c0,7.162,11.294,20.386,28.687,21.524c20.633,1.349,46.1-10.421,46.1-22.308c0.124,0,11.594,1.552,15.478,1.985
				c16.54,1.88,49.543,10.812,63.683,21.499c13.446,10.156-5.555,74.198-17.319,119.547c-4.985,19.187-8.659,35.02-8.053,42.035
				c0.298,3.426,3.377,49.976,6.124,92.084c2.276,34.737,4.329,66.442,4.391,68.433c0.148,3.946-19.471,17.764-52.412,28.205
				c-7.954,2.524-16.7,4.848-26.127,6.779c-16.91,3.476-36.034,5.715-56.841,5.641c-6.803-0.026-13.249-0.371-19.335-0.977
				C1376.695,1208.017,1360.577,1154.393,1360.85,931.443z"/>
			<path style="fill:#D9935C;" d="M1514.147,826.851c0.397-18.205,0.097-39.942-2.362-58.305l-72.663,11.875
				c0,0-0.078,22.184,0.241,46.79c-0.043,0.005-1.976,22.822,26.137,26.162C1493.612,856.712,1514.905,844.466,1514.147,826.851z"/>
			<path style="fill:#4A75CB;" d="M1519.92,1072.464c0,69.682,33.77,50.904,54.157,32.088
				c-2.746-42.108-4.676-191.256-4.676-191.256S1519.92,972.673,1519.92,1072.464z"/>
			<path style="fill:#4A75CB;" d="M1300.969,1061.712c1.348,9.773,8.949,39.504,21.06,59.297c7.298-1.634,21.576-5.768,27.093-8.206
				c6.594-2.907,11.566-6.42,14.102-10.651c3.958-6.593,11.195-29.157,19.707-58.746c-6.297-36.418-12.284-72.379-12.284-72.379
				l-1.856-24.121c0,1.855-28.241,107.832-41.032,110.306c-7.708,1.497-11.978,0.259-16.63-0.408
				c-0.21,0.099-0.421,0.21-0.631,0.309C1307.938,1058.374,1304.086,1060.105,1300.969,1061.712z"/>
			<path style="fill:#233862;" d="M1521.068,747.591c0,0,48.507-76.479-44.635-81.541c0,0-34.935,4.112-42.844-3.796
				c0,0-27.098,41.185-1.791,85.337C1457.103,791.744,1521.068,747.591,1521.068,747.591z"/>
			<path style="fill:#D9935C;" d="M1441.278,787.501c7.061,5.555,27.763,11.072,33.747,11.718c0,0,30.698-6.845,36.279-10.211
				c8.643-5.239,8.086-15.842,8.529-30.584c0.531-17.449,2.29-31.154,0.341-41.213c-2.315-12.034-9.945-18.88-31.305-20.739
				c-39.213-3.404-55.549,6.415-56.232,19.562c-0.177,3.53-0.342,6.896-0.456,10.085
				C1430.612,767.116,1433.851,781.655,1441.278,787.501z"/>
			<path style="fill:#233862;" d="M1431.826,739.556c0.379,23.751,6.785,37.811,11.427,39.587
				c5.342,2.045,11.632,3.738,18.188,4.861c2.208,0.259,4.325,0.185,4.3-1.067c-0.073-3.746-5.078-8.365-1.358-11.682
				c3.902-3.48,24.844-4.652,26.531,2.941c0.824,3.702-5.93,10.238-1.303,10.388c1.405-0.238,2.783-0.51,4.098-0.853
				c7.627-1.989,13.612-5.597,16.134-7.118c8.642-5.239,8.075-13.272,9.989-27.895c1.239-9.46,1.239-4.333,0,9.705
				c-1.295,14.691,1.239,24.121-8.529,30.584c-5.434,3.596-36.732,17.658-36.732,17.658c0.456-7.447-26.232-13.609-33.292-19.165
				C1434.723,782.351,1431.433,770.431,1431.826,739.556z"/>
			<path style="fill:#2B478B;" d="M1578.463,1172.983c0.148,3.946-19.471,17.764-52.413,28.205
				c-2.652,0.848-5.402,1.658-8.226,2.444c-0.038,0.011-0.064,0.042-0.068,0.081c-3.073,36.056-11.393,86.991-18.896,136.146
				c0,0,0,0,0,0.012c-1.943,12.742-3.822,25.36-5.555,37.569c-4.577,32.311-8.003,61.752-8.374,82.943v0.223
				c-0.162,9.723,8.04,33.982,8.658,39.585c0.383,3.426,0.693,7.051,0.915,10.848c0.891,15.179,0.532,33.116-0.693,52.265
				c-5.381,83.574-27.462,190.503-35.341,195.055c-15.661,9.055-44.162-0.012-58.648-2.128c-6-0.891-10.799-6-10.49-12.049
				c7.075-138.696-13.249-331.858-28.439-450.601c-0.396-3.093-0.792-6.124-1.176-9.104c-1.818-14.003-3.019-27.079-3.772-38.868
				c-0.693-10.341-1.027-19.73-1.176-27.869c-0.037-2.536-0.062-4.961-0.074-7.249c-0.036-7.434,5.876-56.099,6.148-279.049l0,0
				c0.005-5.151,4.224-9.365,9.373-9.365h136.341c13.176,0,23.776,10.782,23.611,23.956c-0.213,17.007,0.402,40.754,4.093,63.415
				c5.032,30.958,15.809,59.876,38.05,66.838c0.024,0.007,0.043,0.021,0.054,0.044c0.101,0.225,0.708,1.58,1.685,3.834
				c0.005,0.011,0.008,0.023,0.008,0.034c0.21,5.599,0.445,11.295,0.704,17.103c0.05,1.163,0.1,2.338,0.162,3.513
				c0.024,0.693,0.062,1.373,0.099,2.066c0.05,1.176,0.112,2.362,0.174,3.551c0.086,1.954,0.185,3.921,0.297,5.912
				c0.086,1.559,0.173,3.118,0.259,4.689c0.162,3.019,0.348,6.074,0.545,9.153c0.05,0.99,0.112,1.967,0.186,2.969
				c0.259,3.984,0.531,8.029,0.841,12.099c0.086,1.25,0.185,2.498,0.285,3.76c0.036,0.607,0.086,1.212,0.136,1.819
				c0.123,1.596,0.247,3.191,0.383,4.8c0.136,1.695,0.285,3.402,0.433,5.122C1579.106,1163.012,1578.302,1168.591,1578.463,1172.983
				z"/>
			<path style="fill:#233862;" d="M1493.813,1563.303c-5.381,83.574-27.462,190.503-35.341,195.055
				c-15.661,9.055-44.162-0.012-58.648-2.128c-6-0.891-10.799-6-10.49-12.049c7.075-138.696-13.249-331.858-28.439-450.601
				c-0.396-3.093-0.792-6.124-1.176-9.104c-1.818-14.003-3.019-27.079-3.772-38.868c7.224-47.08,47.997-49.604,84.972,47.787
				C1436.34,1325.706,1495.038,1544.155,1493.813,1563.303z"/>
			<path style="fill:#2B478B;" d="M1579.992,1456.451c1.12,9.661,12.427,32.635,13.785,38.105
				c18.693,75.175,8.366,253.422-0.901,260.548c-14.338,11.032-43.787,5.789-58.421,5.592c-6.065-0.086-11.491-4.53-11.978-10.56
				c-11.495-142.021-59.121-337.085-89.75-451.833c-15.422-57.8-17.607-100.3-17.607-100.3s143.148-87.703,158.628-39.792
				C1587.448,1200.607,1571.358,1382.269,1579.992,1456.451z"/>
			<g>
				<path style="fill:#FFA412;" d="M1434.195,644.664c0.987-1.111,2.035-2.185,3.14-3.231c4.669-4.435,10.292-8.264,17.055-11.084
					c24.957-10.411,45.659-0.802,58.594,9.039c1.275,0.962,2.474,1.933,3.589,2.895c7.032,5.976,10.959,11.309,10.959,11.309
					s12.123,16.537,11.718,51.395l-124.86,1.335C1414.389,706.321,1412.556,668.671,1434.195,644.664z"/>
				<g>
					<path style="fill:#E27F2B;" d="M1504.211,705.347l-6.86,0.078c-0.143-1.989,0.195-47.305,17.097-64.897
						c1.275,0.962,1.01,0.794,2.124,1.755C1500.522,657.774,1504.178,704.88,1504.211,705.347z"/>
					<path style="fill:#E27F2B;" d="M1449.952,705.941c-1.426-27.744-12.051-56.898-14.919-62.081
						c0.987-1.141,1.197-1.352,2.302-2.426c1.988,3.425,18.274,33.616,19.996,64.429l81.918-0.875c0,0-41.51,9.309-66.557,9.621
						c-25.048,0.311-58.303-8.286-58.303-8.286L1449.952,705.941z"/>
				</g>
			</g>
			<path style="fill:#2B478B;" d="M1534.546,830.05c0,0-42.189,49.146-44.663,92.03l21.493,1.14c0,0,5.413-47.761,37.163-90.232
				c0,0-4.967-1.204-6.618-1.531C1539.709,831.02,1534.546,830.05,1534.546,830.05z"/>
			<path style="fill:#2B478B;" d="M1429.362,829.375c-30.22,45.733-33.462,93.632-33.462,93.632l-21.694-0.373
				c1.782-33.708,22.96-70.787,34.651-88.354C1408.858,834.281,1423.87,830.489,1429.362,829.375z"/>
			<path style="fill:#739AF0;" d="M1568.312,1093.876c-1.064,50.322,5.208,150.534,5.208,150.534h29.689
				c14.016-70.511,18.964-115.873,18.964-140.613c0-4.874-0.026-9.415-0.063-13.608c-0.185-21.128-0.754-33.4-0.754-33.4
				c5.567-128.02-20.004-196.478-28.031-205.904c-8.041-9.426-44.781-17.9-44.781-17.9s-12.135,35.367-17.083,63.819
				c-4.948,28.452,38.918,147.998,37.111,188.857C1568.46,1088.211,1568.375,1090.958,1568.312,1093.876z"/>
			<path style="fill:#D9935C;" d="M1126.845,1108.388c6.343,8.987,10.372,13.78,18.998,16.131
				c12.535,3.415,23.689-2.793,31.954-7.55c6.319-3.637,14.209-3.939,17.583-3.88c19.419,4.741,39.434,22.722,126.649,7.919
				c10.527-12.577,3.808-37.254-18.922-59.901c-36.472,9.643-100.645,21.804-112.127,29.253c0,0-14.667-4.219-23.777-1.787
				c-3.45,0.921-7.31,3.423-10.772,6.175c-5.448,4.329-12.857,4.679-19.318,0.786c-6.217-3.746-12.876-4.624-15.2-3.78
				C1118.317,1093.06,1122.852,1102.729,1126.845,1108.388z"/>
			<path style="fill:#739AF0;" d="M1521.754,1208.748l-92.517-7.468c-4.477-0.361-7.004,5.025-3.865,8.237l64.87,66.386
				c2.37,2.425,6.432,1.738,7.872-1.332l12.66-26.979l30.331,14.233l2.328-4.961l-30.331-14.233l12.66-26.979
				C1527.201,1212.584,1525.134,1209.021,1521.754,1208.748z"/>
			<path style="fill:#B84C42;" d="M1105.17,1091.007l121.245,40.295c4.107,1.365,8.544-0.858,9.909-4.965l10.272-30.907
				c1.365-4.107-0.858-8.544-4.965-9.909l-121.245-40.296c-4.107-1.365-8.544,0.858-9.909,4.965l-10.272,30.907
				C1098.839,1085.206,1101.062,1089.642,1105.17,1091.007z"/>
			<path style="fill:#FFA412;" d="M1623.631,1294.836L1623.631,1294.836c-1.55,3.588-5.716,5.24-9.305,3.69l-72.1-31.151
				c-3.588-1.551-5.24-5.716-3.69-9.305l0,0c1.55-3.589,5.716-5.241,9.305-3.69l72.1,31.151
				C1623.53,1287.082,1625.182,1291.248,1623.631,1294.836z"/>
			<path style="fill:#D9935C;" d="M1573.52,1244.411c0,0-6.272-100.212-5.208-150.534c23.739-7.657,42.888-5.975,53.798-3.686
				c0.038,4.193,0.063,8.734,0.063,13.608c0,24.74-4.948,70.102-18.964,140.613c6.184,25.978,5.773,54.017-4.948,58.965
				c-10.721,4.948-46.182-13.607-45.771-21.854C1552.903,1273.275,1573.52,1244.411,1573.52,1244.411z"/>
		</g>
		<g>
			<g>
				<g>
					<g>
						<path style="fill:#FFA412;" d="M806.738,1277.415H662.26c-7.946,0-14.448,6.502-14.448,14.448v108.358
							c0,7.947,6.502,14.448,14.448,14.448h144.478c7.946,0,14.447-6.502,14.447-14.448v-108.358
							C821.185,1283.916,814.684,1277.415,806.738,1277.415z"/>
						<path style="fill:#E27F2B;" d="M853.693,1277.415H709.215c-7.946,0-14.447,6.502-14.447,14.448v108.358
							c0,7.947,6.501,14.448,14.447,14.448h144.478c7.946,0,14.448-6.502,14.448-14.448v-108.358
							C868.141,1283.916,861.639,1277.415,853.693,1277.415z"/>
					</g>
					<path style="fill:#FFA412;" d="M677.912,1278.017c0,0,34.313-25.284,39.43-24.681c5.117,0.602,13.243,2.408,13.243,2.408
						l-30.701,23.176L677.912,1278.017z"/>
				</g>
				<path style="fill:#9ED9F0;" d="M948.748,878.633c-13.762-10.402-45.884-19.095-61.981-20.926
					c-3.781-0.421-15.086-0.469-15.206-0.469c0,11.57-24.645,21.563-44.728,20.251c-16.928-1.107-27.92-13.978-27.92-20.949
					l-0.012-0.024c-1.3,0-67.266,45.787-75.562,91.406c-0.554,3.047-0.855,6.081-0.855,9.115
					c-0.265,216.993-13.412,250.272-9.258,250.2c0,0,24.681,18.986,70.481,23.478c5.923,0.589,12.196,0.927,18.818,0.95
					c20.251,0.073,38.865-2.106,55.323-5.49c9.174-1.878,17.687-4.141,25.428-6.598c32.062-10.162,51.157-23.609,51.013-27.45
					c-0.157-4.274,0.626-9.704,0.096-15.796c-1.998-22.973-3.094-43.043-3.937-63.257c34.795,3.057,54.865-0.386,54.865-0.386
					C1013.81,1051.368,967.361,892.696,948.748,878.633z M940.621,1055.256c-2.119,0.566-4.419,1.108-6.875,1.626
					c-1.698,0.373-3.467,0.722-5.297,1.059c-0.037-0.831-0.06-1.673-0.096-2.492c-0.47-11.366-1-22.189-1.746-32.484
					c-0.626-8.62-1.397-16.868-2.408-24.742C936.202,1029.877,944.57,1054.197,940.621,1055.256z"/>
				<path style="fill:#D9935C;" d="M798.911,856.535c0,0-50.964,7.72-72.908,26.006c-21.943,18.286-24.161,134.722-31.475,167.636
					c-1.439,6.461-2.731,16.896-3.844,29.607c-3.925,44.672,0.778,106.613,4.668,129.515c0.413,5.517,0.203,13.628-2.992,21.613
					c-5.618,14.047-6.822,18.06,3.211,26.086c10.033,8.026,20.869,19.264,28.495,16.054c5.882-2.478,4.838-41.487,4.054-59.196
					c8.803-37.842,23.061-108.869,36.48-177.699C782.502,944.387,798.911,856.535,798.911,856.535z"/>
				<path style="fill:#9ED9F0;" d="M798.912,856.539c0,0-9.464,50.627-21.853,115.161c-3.925,20.479-8.151,42.355-12.461,64.461
					c-17.542,34.374-32.592,57.743-37.24,53.349c-9.487-8.957-26.138-10.066-36.673-9.729c1.108-12.714,2.408-23.141,3.84-29.606
					c0.578-2.601,1.12-5.719,1.649-9.271c6.14-41.417,9.62-141.527,29.823-158.359c10.631-8.849,28.065-15.231,43.223-19.468h0.012
					c7.741-2.155,14.893-3.744,20.239-4.828C795.252,857.093,798.912,856.539,798.912,856.539z"/>
				<path style="fill:#74ACBE;" d="M727.361,1089.511c-9.485-8.956-26.137-10.061-36.677-9.728
					c1.114-12.711,2.405-23.146,3.844-29.607c0.577-2.601,1.121-5.722,1.649-9.273l52.584-126.936
					C748.762,913.968,732.009,1093.908,727.361,1089.511z"/>
				<path style="fill:#D9935C;" d="M871.69,855.241c0.387-17.719,0.095-38.875-2.3-56.747l-70.722,11.557
					c0,0,0.001,21.58,0.311,45.528c-0.042,0.006-0.069,0.01-0.069,0.01s-1.929,22.215,25.432,25.466
					C851.704,884.304,872.427,872.385,871.69,855.241z"/>
				<path style="fill:#233862;" d="M812.504,1794.818c8.89-5.473,3.69-46.313,3.69-46.313s-41.65-33.063-47.264-7.608
					c-5.614,25.456-39.31,37.003-58.503,40.19c-13.25,2.2-17.327,9.557-18.582,13.904L812.504,1794.818z"/>
				<path style="fill:#74ACBE;" d="M933.758,1056.942c0,0-13.243,17.902-15.952,17.902c-2.709,0-36.12-12.942-26.536-41.885
					c9.584-28.944,32.929-34.735,32.929-34.735c1.011,7.873,1.782,16.122,2.408,24.742c0.746,10.294,1.276,21.117,1.746,32.484
					c0.036,0.819,0.06,1.661,0.096,2.492c1.83-0.337,3.599-0.686,5.297-1.059L933.758,1056.942z"/>
				<path style="fill:#233862;" d="M940.125,1794.818c8.891-5.473,3.69-46.313,3.69-46.313s-41.65-33.063-47.264-7.608
					c-5.614,25.456-39.31,37.003-58.503,40.19c-13.25,2.2-17.327,9.557-18.582,13.904L940.125,1794.818z"/>
				<path style="fill:#2B478B;" d="M934.288,1192.125c0.144,3.841-18.951,17.288-51.013,27.45c-2.581,0.825-5.258,1.614-8.006,2.38
					c-0.036,0.01-0.063,0.04-0.066,0.079c-2.99,35.092-11.088,84.666-18.392,132.508c0,0,0,0,0,0.013
					c-1.89,12.401-3.721,24.681-5.406,36.565c-4.454,31.448-7.79,60.103-8.151,80.727v0.217c-0.157,9.464,7.826,33.074,8.428,38.527
					c0.373,3.335,0.674,6.863,0.891,10.559c0.867,14.773,0.518,32.23-0.674,50.868c-5.238,81.342-26.729,185.414-34.398,189.844
					c-15.242,8.813-42.982-0.012-57.081-2.071c-5.839-0.866-10.511-5.839-10.21-11.727c6.886-134.99-12.895-322.991-27.68-438.562
					c-0.385-3.009-0.771-5.959-1.144-8.86c-1.77-13.63-2.938-26.356-3.672-37.829c-0.674-10.066-0.999-19.204-1.144-27.126
					c-0.036-2.468-0.06-4.828-0.072-7.056c-0.036-7.235,5.719-54.601,5.984-271.594l0,0c0.005-5.013,4.111-9.115,9.124-9.115
					h132.698c12.823,0,23.14,10.495,22.98,23.316c-0.207,16.554,0.391,39.665,3.984,61.722
					c4.897,30.129,15.387,58.275,37.033,65.051c0.024,0.008,0.042,0.021,0.052,0.044c0.098,0.218,0.69,1.537,1.64,3.732
					c0.004,0.01,0.007,0.021,0.008,0.033c0.204,5.448,0.433,10.994,0.686,16.645c0.048,1.132,0.096,2.275,0.156,3.42
					c0.024,0.674,0.06,1.336,0.096,2.01c0.048,1.144,0.108,2.3,0.169,3.456c0.084,1.901,0.18,3.816,0.289,5.755
					c0.085,1.517,0.169,3.034,0.253,4.563c0.156,2.938,0.337,5.911,0.529,8.91c0.048,0.963,0.108,1.914,0.181,2.889
					c0.253,3.876,0.518,7.814,0.819,11.774c0.085,1.216,0.181,2.433,0.277,3.661c0.036,0.589,0.085,1.18,0.133,1.769
					c0.121,1.554,0.241,3.106,0.373,4.672c0.133,1.649,0.277,3.311,0.421,4.985C934.914,1182.422,934.131,1187.851,934.288,1192.125
					z"/>
				<path style="fill:#233862;" d="M851.899,1572.016c-5.238,81.342-26.729,185.414-34.398,189.844
					c-15.242,8.813-42.982-0.012-57.081-2.071c-5.839-0.866-10.511-5.839-10.21-11.727c6.886-134.99-12.895-322.991-27.68-438.562
					c-0.385-3.009-0.771-5.959-1.144-8.86c-1.77-13.63-2.938-26.356-3.672-37.829c7.031-45.823,46.714-48.28,82.702,46.51
					C815.839,1346.042,853.091,1553.379,851.899,1572.016z"/>
				<path style="fill:#2B478B;" d="M935.776,1468.019c1.09,9.403,12.096,31.763,13.416,37.087
					c18.194,73.167,8.143,246.651-0.877,253.587c-13.954,10.737-42.617,5.635-56.86,5.443c-5.904-0.084-11.184-4.409-11.659-10.278
					c-11.186-138.225-57.542-328.078-87.351-439.761c-15.01-56.256-17.137-97.619-17.137-97.619s139.323-85.361,154.391-38.73
					C943.033,1219.012,927.372,1395.818,935.776,1468.019z"/>
				<path style="fill:#2B478B;" d="M891.543,858.355c0,0-41.06,47.833-43.468,89.571h20.869c0,0,5.317-45.374,36.219-86.711
					L891.543,858.355z"/>
				<path style="fill:#2B478B;" d="M789.473,858.249c-29.413,44.511-32.905,89.672-32.905,89.672h-20.865
					c1.734-32.808,22.141-67.748,33.519-84.844h0.012C776.975,860.922,784.127,859.333,789.473,858.249z"/>
				<path style="fill:#FFA412;" d="M1001.441,1116.79c-0.783-15.898-2.956-34.806-7.105-57.291
					c-0.011,10.834-0.717,21.083-2.305,30.35c5.163,41.15,3.166,72.602-6.001,90.409c-5.682,11.043-13.548,19.515-23.068,25.185
					c4.854-4.721,9.135-10.348,12.753-16.835c7.05-12.632,13.536-36.141,11.131-79.508c-0.485,1.235-0.993,2.426-1.534,3.586
					c0,0-1.787,0.308-5.229,0.661c1.412,31.707-1.975,55.988-10.072,70.518c-6.134,11.01-14.464,19.229-24.403,24.458
					c3.133-3.101,6.013-6.586,8.682-10.481c8.362-12.289,17.089-36.45,17.464-83.866c-2.085,0.121-4.402,0.22-6.939,0.286
					c-0.386,36.35-5.748,63.402-15.843,78.185c-0.463,0.684-0.948,1.367-1.445,2.03c7.657-13.139,14.982-36.958,15.357-80.182
					c-2.173,0.033-4.49,0.056-6.951,0.033c-0.364,36.318-5.748,63.347-15.831,78.119c-6.321,9.256-14.242,16.041-23.344,20.221
					c-2.78-0.474-5.627-1.103-8.484-1.864c-0.386-0.088-0.773-0.187-1.147-0.309c-0.044-0.011-0.078-0.022-0.122-0.033
					c-0.375-0.099-0.761-0.209-1.136-0.319c-3.486-1.015-6.873-2.174-10.15-3.476c-40.146-15.942-63.181-51.84-65.421-81.351
					c-1.589-20.961,0.11-52.171,4.347-86.117c8.34-66.899,26.511-144.456,48.608-175.279c0.375-0.519,0.728-1.026,1.103-1.512
					c0,0,0-0.011,0.011-0.011c0.464-0.607,0.927-1.202,1.401-1.754c0.817-0.982,1.622-1.898,2.449-2.736
					c0.011-0.011,0.011-0.011,0.022-0.022c1.732-1.776,3.464-3.178,5.152-4.215c0.463,0.276,0.971,0.618,1.522,1.06
					c1.435,1.092,3.144,2.758,5.119,5.273c0.011,0.022,0.033,0.033,0.044,0.055c2.305,0.496,4.7,1.07,7.149,1.688
					c1.136,0.309,2.305,0.607,3.475,0.949c0.078,0.011,0.143,0.022,0.221,0.055c0.276,0.055,0.552,0.144,0.816,0.221
					c1.435,0.397,2.868,0.817,4.314,1.246c0.817,0.254,1.644,0.508,2.46,0.761c0.971,0.309,1.931,0.618,2.891,0.938
					c1.048,0.353,2.096,0.706,3.133,1.07c1.103,0.386,2.206,0.783,3.288,1.191c-0.022-0.033-0.044-0.066-0.066-0.099
					c-13.007-20.498-22.252-25.275-28.253-24.988c-0.938,0.044-1.864,0.165-2.813,0.375c-1.092-0.287-2.096-0.408-3.012-0.408
					c-2.008,0.011-4.027,0.386-6.046,1.114c-6.178,0.596-12.676,4.501-19.406,11.683c-0.463,0.474-0.916,0.982-1.379,1.501
					c-3.74,4.214-7.48,9.344-11.208,15.224c-0.022,0.033-0.044,0.066-0.066,0.099c-35.579,56.232-68.753,181.148-70.728,239.619
					c-1.555,46.269,34.068,87.64,70.066,104.585c3.519,1.655,7.016,3.09,10.469,4.292c1.953,0.683,3.883,1.291,5.803,1.831
					c0.044,0.011,0.077,0.022,0.121,0.032c7.458,2.097,14.706,3.133,21.656,3.133c1.49,0,2.957-0.044,4.413-0.143
					c1.501,0.099,2.99,0.143,4.468,0.143c6.542,0,12.83-0.916,18.766-2.735c0.938-0.044,1.876-0.111,2.802-0.177
					c0.795-0.078,1.589-0.143,2.361-0.242c1.522-0.177,3.034-0.408,4.523-0.684c4.357,0.022,8.605-0.298,12.709-0.981
					c12.929-2.119,24.403-7.679,33.791-16.417c5.913-5.493,10.999-12.245,15.092-20.189
					C997.889,1173.054,1003.207,1152.512,1001.441,1116.79z M791.764,1112.641c1.743-51.751,30.041-161.664,61.328-221.007
					c-1.093,2.626-2.196,5.34-3.277,8.132c-29.566,62.618-54.4,162.205-56.087,212.534c-0.717,21.049,6.266,41.072,17.486,58.25
					C797.7,1151.585,791.157,1130.37,791.764,1112.641z M866.264,1209.018c-44.526-20.961-66.723-64.351-65.631-96.378
					c0.949-28.429,9.929-74.434,23.013-119.952c-10.205,49.203-15.897,99.113-14.496,129.771
					c1.765,38.823,29.346,71.102,60.147,87.916C868.283,1209.957,867.291,1209.504,866.264,1209.018z M816.035,1121.997
					c-2.03-44.394,12.003-133.776,32.754-197.895c2.328-7.171,4.733-14.033,7.215-20.487c0.927-1.964,1.854-3.872,2.78-5.758
					c-15.975,43.754-27.977,106.284-33.184,158.796c-2.67,27.151-3.52,51.621-2.173,69.448
					c2.427,32.037,22.395,58.801,46.931,75.825C836.146,1183.016,817.282,1149.368,816.035,1121.997z"/>
				<path style="fill:#D9935C;" d="M933.758,1056.936c-1.132,0.169-22.466,4.064-23.634,4.232
					c-35.535,5.21-83.346,7.505-88.325,7.734c-0.466-0.435-17.428-16.234-24.042-16.234c-6.707,0-26.037,7.044-28.009,12.462
					c-1.973,5.418-2.761,15.17,2.761,17.337c5.523,2.168,28.404,7.586,34.321,8.128c0.809,0.074,1.782,0.073,2.841-0.025
					c42.502,12.487,79.088,18.632,107.28,21.527c2.516,0.264,17.056,2.155,29.97,2.021
					C946.475,1089.581,938.213,1066.918,933.758,1056.936z"/>
				<path style="fill:#B64C41;" d="M878.426,778.099c0,0,47.211-74.436-43.443-79.363c0,0-34.001,4.003-41.699-3.694
					c0,0-26.374,40.084-1.744,83.057C816.171,821.072,878.426,778.099,878.426,778.099z"/>
				<path style="fill:#D9935C;" d="M800.769,816.942c6.872,5.407,27.02,10.776,32.846,11.404c0,0,29.878-6.662,35.309-9.938
					c8.411-5.098,7.87-15.419,8.301-29.767c0.517-16.983,2.229-30.321,0.332-40.112c-2.254-11.712-9.68-18.375-30.469-20.185
					c-38.166-3.313-54.066,6.244-54.731,19.04c-0.172,3.436-0.332,6.712-0.443,9.815
					C790.386,797.102,793.539,811.253,800.769,816.942z"/>
				<g>
					<path style="fill:#FFA412;" d="M884.716,686.61c0,0-3.821-5.19-10.666-11.006c-1.084-0.936-2.251-1.882-3.492-2.818
						c-12.589-9.579-32.738-18.93-57.027-8.797c-6.582,2.745-12.055,6.471-16.599,10.788c-1.077,1.017-2.095,2.063-3.057,3.144
						c-21.061,23.366-19.278,60.01-19.278,60.01l121.525-1.3C896.516,702.705,884.716,686.61,884.716,686.61z"/>
					<g>
						<path style="fill:#E27F2B;" d="M862.02,736.983c-0.033-0.454-3.591-46.302,12.03-61.379c-1.084-0.936-0.826-0.773-2.066-1.709
							c-16.451,17.122-16.78,61.228-16.64,63.164L862.02,736.983z"/>
						<path style="fill:#E27F2B;" d="M816.481,737.483c-1.152-29.763-17.579-59.399-19.55-62.706
							c-1.077,1.017-1.28,1.217-2.241,2.299c2.85,5.015,13.576,33.709,14.601,60.484l-34.695,0.371c0,0,32.368,8.367,56.746,8.065
							c24.378-0.303,64.78-9.364,64.78-9.364L816.481,737.483z"/>
					</g>
				</g>
			</g>
			<path style="fill:#CB7D45;" d="M798.912,815.179c0,0,12.02,9.161,34.702,13.167c0,0,12.429,0.586,37.496-11.556
				c0,0-30.948,26.018-37.645,26.269C826.768,843.311,798.912,815.179,798.912,815.179z"/>
		</g>
		<g>
			<path style="fill:#233862;" d="M1553.268,1788.981c9.135-5.623,3.768-47.295,3.768-47.295s-42.793-33.972-48.561-7.817
				c-5.768,26.155-40.389,38.018-60.11,41.292c-13.613,2.26-18.638,9.302-19.927,13.768L1553.268,1788.981z"/>
			<path style="fill:#233862;" d="M1684.393,1788.981c9.135-5.623,3.768-47.295,3.768-47.295s-42.793-33.972-48.561-7.817
				c-5.768,26.155-40.389,38.018-60.11,41.292c-13.613,2.26-18.56,9.302-19.85,13.768L1684.393,1788.981z"/>
			<path style="fill:#233862;" d="M1439.824,1373.797v50.821H316.44c-5.699,0-10.318,4.62-10.318,10.318v374.919h2402.076v-436.058
				H1439.824z"/>
			<path style="fill:#B84C42;" d="M2576.705,1809.602h127.939c4.334,0,7.847-3.514,7.847-7.848v-32.613
				c0-4.334-3.513-7.848-7.847-7.848h-127.939c-4.334,0-7.847,3.513-7.847,7.848v32.613
				C2568.857,1806.088,2572.371,1809.602,2576.705,1809.602z"/>
			<path style="fill:#B84C42;" d="M2425.461,1809.602H2553.4c4.334,0,7.847-3.514,7.847-7.848v-32.613
				c0-4.334-3.513-7.848-7.847-7.848h-127.939c-4.334,0-7.847,3.513-7.847,7.848v32.613
				C2417.614,1806.088,2421.127,1809.602,2425.461,1809.602z"/>
			<path style="fill:#B84C42;" d="M2274.218,1809.602h127.939c4.334,0,7.847-3.514,7.847-7.848v-32.613
				c0-4.334-3.513-7.848-7.847-7.848h-127.939c-4.334,0-7.847,3.513-7.847,7.848v32.613
				C2266.37,1806.088,2269.883,1809.602,2274.218,1809.602z"/>
			<path style="fill:#B84C42;" d="M2122.974,1809.602h127.939c4.334,0,7.848-3.514,7.848-7.848v-32.613
				c0-4.334-3.514-7.848-7.848-7.848h-127.939c-4.334,0-7.848,3.513-7.848,7.848v32.613
				C2115.126,1806.088,2118.64,1809.602,2122.974,1809.602z"/>
			<path style="fill:#B84C42;" d="M1971.73,1809.602h127.939c4.334,0,7.848-3.514,7.848-7.848v-32.613
				c0-4.334-3.514-7.848-7.848-7.848H1971.73c-4.334,0-7.848,3.513-7.848,7.848v32.613
				C1963.882,1806.088,1967.396,1809.602,1971.73,1809.602z"/>
			<path style="fill:#B84C42;" d="M1820.486,1809.602h127.939c4.334,0,7.848-3.514,7.848-7.848v-32.613
				c0-4.334-3.514-7.848-7.848-7.848h-127.939c-4.334,0-7.848,3.513-7.848,7.848v32.613
				C1812.639,1806.088,1816.152,1809.602,1820.486,1809.602z"/>
			<path style="fill:#B84C42;" d="M1669.243,1809.602h127.939c4.334,0,7.848-3.514,7.848-7.848v-32.613
				c0-4.334-3.513-7.848-7.848-7.848h-127.939c-4.334,0-7.848,3.513-7.848,7.848v32.613
				C1661.395,1806.088,1664.909,1809.602,1669.243,1809.602z"/>
			<path style="fill:#B84C42;" d="M1517.999,1809.602h127.939c4.334,0,7.848-3.514,7.848-7.848v-32.613
				c0-4.334-3.514-7.848-7.848-7.848h-127.939c-4.334,0-7.848,3.513-7.848,7.848v32.613
				C1510.151,1806.088,1513.665,1809.602,1517.999,1809.602z"/>
			<path style="fill:#B84C42;" d="M1365.804,1809.602h127.939c4.334,0,7.848-3.514,7.848-7.848v-32.613
				c0-4.334-3.513-7.848-7.848-7.848h-127.939c-4.334,0-7.847,3.513-7.847,7.848v32.613
				C1357.957,1806.088,1361.47,1809.602,1365.804,1809.602z"/>
			<path style="fill:#B84C42;" d="M1214.56,1809.602h127.939c4.334,0,7.848-3.514,7.848-7.848v-32.613
				c0-4.334-3.513-7.848-7.848-7.848H1214.56c-4.334,0-7.848,3.513-7.848,7.848v32.613
				C1206.713,1806.088,1210.226,1809.602,1214.56,1809.602z"/>
			<path style="fill:#B84C42;" d="M1063.317,1809.602h127.939c4.334,0,7.848-3.514,7.848-7.848v-32.613
				c0-4.334-3.513-7.848-7.848-7.848h-127.939c-4.334,0-7.848,3.513-7.848,7.848v32.613
				C1055.469,1806.088,1058.983,1809.602,1063.317,1809.602z"/>
			<path style="fill:#B84C42;" d="M912.073,1809.602h127.939c4.334,0,7.847-3.514,7.847-7.848v-32.613
				c0-4.334-3.513-7.848-7.847-7.848H912.073c-4.334,0-7.848,3.513-7.848,7.848v32.613
				C904.225,1806.088,907.739,1809.602,912.073,1809.602z"/>
			<path style="fill:#B84C42;" d="M760.829,1809.602h127.939c4.334,0,7.848-3.514,7.848-7.848v-32.613
				c0-4.334-3.514-7.848-7.848-7.848H760.829c-4.334,0-7.848,3.513-7.848,7.848v32.613
				C752.982,1806.088,756.495,1809.602,760.829,1809.602z"/>
			<path style="fill:#B84C42;" d="M609.586,1809.602h127.939c4.334,0,7.848-3.514,7.848-7.848v-32.613
				c0-4.334-3.513-7.848-7.848-7.848H609.586c-4.334,0-7.848,3.513-7.848,7.848v32.613
				C601.738,1806.088,605.251,1809.602,609.586,1809.602z"/>
			<path style="fill:#B84C42;" d="M458.342,1809.602h127.939c4.334,0,7.848-3.514,7.848-7.848v-32.613
				c0-4.334-3.513-7.848-7.848-7.848H458.342c-4.334,0-7.848,3.513-7.848,7.848v32.613
				C450.494,1806.088,454.008,1809.602,458.342,1809.602z"/>
			<path style="fill:#B84C42;" d="M307.098,1809.602h127.939c4.334,0,7.848-3.514,7.848-7.848v-32.613
				c0-4.334-3.513-7.848-7.848-7.848H307.098c-4.334,0-7.848,3.513-7.848,7.848v32.613
				C299.25,1806.088,302.764,1809.602,307.098,1809.602z"/>
			<path style="fill:#B84C42;" d="M2650.911,1754.423h55.107c4.334,0,7.847-3.513,7.847-7.848v-32.613
				c0-4.334-3.513-7.848-7.847-7.848h-55.107c-4.334,0-7.847,3.514-7.847,7.848v32.613
				C2643.063,1750.909,2646.577,1754.423,2650.911,1754.423z"/>
			<path style="fill:#B84C42;" d="M2499.667,1754.423h127.939c4.334,0,7.847-3.513,7.847-7.848v-32.613
				c0-4.334-3.513-7.848-7.847-7.848h-127.939c-4.334,0-7.848,3.514-7.848,7.848v32.613
				C2491.82,1750.909,2495.333,1754.423,2499.667,1754.423z"/>
			<path style="fill:#B84C42;" d="M2348.424,1754.423h127.939c4.334,0,7.848-3.513,7.848-7.848v-32.613
				c0-4.334-3.514-7.848-7.848-7.848h-127.939c-4.334,0-7.848,3.514-7.848,7.848v32.613
				C2340.576,1750.909,2344.089,1754.423,2348.424,1754.423z"/>
			<path style="fill:#B84C42;" d="M2197.18,1754.423h127.939c4.334,0,7.848-3.513,7.848-7.848v-32.613
				c0-4.334-3.514-7.848-7.848-7.848H2197.18c-4.334,0-7.847,3.514-7.847,7.848v32.613
				C2189.332,1750.909,2192.846,1754.423,2197.18,1754.423z"/>
			<path style="fill:#B84C42;" d="M2045.936,1754.423h127.939c4.334,0,7.847-3.513,7.847-7.848v-32.613
				c0-4.334-3.513-7.848-7.847-7.848h-127.939c-4.334,0-7.848,3.514-7.848,7.848v32.613
				C2038.089,1750.909,2041.602,1754.423,2045.936,1754.423z"/>
			<path style="fill:#B84C42;" d="M1894.692,1754.423h127.939c4.334,0,7.848-3.513,7.848-7.848v-32.613
				c0-4.334-3.513-7.848-7.848-7.848h-127.939c-4.334,0-7.848,3.514-7.848,7.848v32.613
				C1886.845,1750.909,1890.358,1754.423,1894.692,1754.423z"/>
			<path style="fill:#B84C42;" d="M1743.449,1754.423h127.939c4.334,0,7.848-3.513,7.848-7.848v-32.613
				c0-4.334-3.514-7.848-7.848-7.848h-127.939c-4.334,0-7.848,3.514-7.848,7.848v32.613
				C1735.601,1750.909,1739.115,1754.423,1743.449,1754.423z"/>
			<path style="fill:#B84C42;" d="M1592.205,1754.423h127.939c4.334,0,7.848-3.513,7.848-7.848v-32.613
				c0-4.334-3.514-7.848-7.848-7.848h-127.939c-4.334,0-7.848,3.514-7.848,7.848v32.613
				C1584.357,1750.909,1587.871,1754.423,1592.205,1754.423z"/>
			<path style="fill:#B84C42;" d="M1440.01,1754.423h127.939c4.334,0,7.848-3.513,7.848-7.848v-32.613
				c0-4.334-3.513-7.848-7.848-7.848H1440.01c-4.334,0-7.848,3.514-7.848,7.848v32.613
				C1432.162,1750.909,1435.676,1754.423,1440.01,1754.423z"/>
			<path style="fill:#B84C42;" d="M1288.766,1754.423h127.939c4.334,0,7.848-3.513,7.848-7.848v-32.613
				c0-4.334-3.513-7.848-7.848-7.848h-127.939c-4.334,0-7.848,3.514-7.848,7.848v32.613
				C1280.919,1750.909,1284.432,1754.423,1288.766,1754.423z"/>
			<path style="fill:#B84C42;" d="M1137.523,1754.423h127.939c4.334,0,7.847-3.513,7.847-7.848v-32.613
				c0-4.334-3.513-7.848-7.847-7.848h-127.939c-4.334,0-7.848,3.514-7.848,7.848v32.613
				C1129.675,1750.909,1133.188,1754.423,1137.523,1754.423z"/>
			<path style="fill:#B84C42;" d="M986.279,1754.423h127.939c4.334,0,7.848-3.513,7.848-7.848v-32.613
				c0-4.334-3.514-7.848-7.848-7.848H986.279c-4.334,0-7.848,3.514-7.848,7.848v32.613
				C978.431,1750.909,981.945,1754.423,986.279,1754.423z"/>
			<path style="fill:#B84C42;" d="M835.035,1754.423h127.939c4.334,0,7.848-3.513,7.848-7.848v-32.613
				c0-4.334-3.513-7.848-7.848-7.848H835.035c-4.334,0-7.848,3.514-7.848,7.848v32.613
				C827.188,1750.909,830.701,1754.423,835.035,1754.423z"/>
			<path style="fill:#B84C42;" d="M683.792,1754.423H811.73c4.334,0,7.848-3.513,7.848-7.848v-32.613
				c0-4.334-3.513-7.848-7.848-7.848H683.792c-4.334,0-7.848,3.514-7.848,7.848v32.613
				C675.944,1750.909,679.457,1754.423,683.792,1754.423z"/>
			<path style="fill:#B84C42;" d="M532.548,1754.423h127.939c4.334,0,7.848-3.513,7.848-7.848v-32.613
				c0-4.334-3.513-7.848-7.848-7.848H532.548c-4.334,0-7.848,3.514-7.848,7.848v32.613
				C524.7,1750.909,528.214,1754.423,532.548,1754.423z"/>
			<path style="fill:#B84C42;" d="M381.304,1754.423h127.939c4.334,0,7.848-3.513,7.848-7.848v-32.613
				c0-4.334-3.513-7.848-7.848-7.848H381.304c-4.334,0-7.848,3.514-7.848,7.848v32.613
				C373.456,1750.909,376.97,1754.423,381.304,1754.423z"/>
			<path style="fill:#B84C42;" d="M305.177,1754.423h55.107c4.334,0,7.848-3.513,7.848-7.848v-32.613
				c0-4.334-3.513-7.848-7.848-7.848h-55.107c-4.334,0-7.847,3.514-7.847,7.848v32.613
				C297.329,1750.909,300.843,1754.423,305.177,1754.423z"/>
			<path style="fill:#B84C42;" d="M2576.705,1698.293h127.939c4.334,0,7.847-3.513,7.847-7.847v-32.613
				c0-4.334-3.513-7.848-7.847-7.848h-127.939c-4.334,0-7.847,3.514-7.847,7.848v32.613
				C2568.857,1694.779,2572.371,1698.293,2576.705,1698.293z"/>
			<path style="fill:#B84C42;" d="M2425.461,1698.293H2553.4c4.334,0,7.847-3.513,7.847-7.847v-32.613
				c0-4.334-3.513-7.848-7.847-7.848h-127.939c-4.334,0-7.847,3.514-7.847,7.848v32.613
				C2417.614,1694.779,2421.127,1698.293,2425.461,1698.293z"/>
			<path style="fill:#B84C42;" d="M2274.218,1698.293h127.939c4.334,0,7.847-3.513,7.847-7.847v-32.613
				c0-4.334-3.513-7.848-7.847-7.848h-127.939c-4.334,0-7.847,3.514-7.847,7.848v32.613
				C2266.37,1694.779,2269.883,1698.293,2274.218,1698.293z"/>
			<path style="fill:#B84C42;" d="M2122.974,1698.293h127.939c4.334,0,7.848-3.513,7.848-7.847v-32.613
				c0-4.334-3.514-7.848-7.848-7.848h-127.939c-4.334,0-7.848,3.514-7.848,7.848v32.613
				C2115.126,1694.779,2118.64,1698.293,2122.974,1698.293z"/>
			<path style="fill:#B84C42;" d="M1971.73,1698.293h127.939c4.334,0,7.848-3.513,7.848-7.847v-32.613
				c0-4.334-3.514-7.848-7.848-7.848H1971.73c-4.334,0-7.848,3.514-7.848,7.848v32.613
				C1963.882,1694.779,1967.396,1698.293,1971.73,1698.293z"/>
			<path style="fill:#B84C42;" d="M1820.486,1698.293h127.939c4.334,0,7.848-3.513,7.848-7.847v-32.613
				c0-4.334-3.514-7.848-7.848-7.848h-127.939c-4.334,0-7.848,3.514-7.848,7.848v32.613
				C1812.639,1694.779,1816.152,1698.293,1820.486,1698.293z"/>
			<path style="fill:#B84C42;" d="M1669.243,1698.293h127.939c4.334,0,7.848-3.513,7.848-7.847v-32.613
				c0-4.334-3.513-7.848-7.848-7.848h-127.939c-4.334,0-7.848,3.514-7.848,7.848v32.613
				C1661.395,1694.779,1664.909,1698.293,1669.243,1698.293z"/>
			<path style="fill:#B84C42;" d="M1517.999,1698.293h127.939c4.334,0,7.848-3.513,7.848-7.847v-32.613
				c0-4.334-3.514-7.848-7.848-7.848h-127.939c-4.334,0-7.848,3.514-7.848,7.848v32.613
				C1510.151,1694.779,1513.665,1698.293,1517.999,1698.293z"/>
			<path style="fill:#B84C42;" d="M1365.804,1698.293h127.939c4.334,0,7.848-3.513,7.848-7.847v-32.613
				c0-4.334-3.513-7.848-7.848-7.848h-127.939c-4.334,0-7.847,3.514-7.847,7.848v32.613
				C1357.957,1694.779,1361.47,1698.293,1365.804,1698.293z"/>
			<path style="fill:#B84C42;" d="M1214.56,1698.293h127.939c4.334,0,7.848-3.513,7.848-7.847v-32.613
				c0-4.334-3.513-7.848-7.848-7.848H1214.56c-4.334,0-7.848,3.514-7.848,7.848v32.613
				C1206.713,1694.779,1210.226,1698.293,1214.56,1698.293z"/>
			<path style="fill:#B84C42;" d="M1063.317,1698.293h127.939c4.334,0,7.848-3.513,7.848-7.847v-32.613
				c0-4.334-3.513-7.848-7.848-7.848h-127.939c-4.334,0-7.848,3.514-7.848,7.848v32.613
				C1055.469,1694.779,1058.983,1698.293,1063.317,1698.293z"/>
			<path style="fill:#B84C42;" d="M912.073,1698.293h127.939c4.334,0,7.847-3.513,7.847-7.847v-32.613
				c0-4.334-3.513-7.848-7.847-7.848H912.073c-4.334,0-7.848,3.514-7.848,7.848v32.613
				C904.225,1694.779,907.739,1698.293,912.073,1698.293z"/>
			<path style="fill:#B84C42;" d="M760.829,1698.293h127.939c4.334,0,7.848-3.513,7.848-7.847v-32.613
				c0-4.334-3.514-7.848-7.848-7.848H760.829c-4.334,0-7.848,3.514-7.848,7.848v32.613
				C752.982,1694.779,756.495,1698.293,760.829,1698.293z"/>
			<path style="fill:#B84C42;" d="M609.586,1698.293h127.939c4.334,0,7.848-3.513,7.848-7.847v-32.613
				c0-4.334-3.513-7.848-7.848-7.848H609.586c-4.334,0-7.848,3.514-7.848,7.848v32.613
				C601.738,1694.779,605.251,1698.293,609.586,1698.293z"/>
			<path style="fill:#B84C42;" d="M458.342,1698.293h127.939c4.334,0,7.848-3.513,7.848-7.847v-32.613
				c0-4.334-3.513-7.848-7.848-7.848H458.342c-4.334,0-7.848,3.514-7.848,7.848v32.613
				C450.494,1694.779,454.008,1698.293,458.342,1698.293z"/>
			<path style="fill:#B84C42;" d="M307.098,1698.293h127.939c4.334,0,7.848-3.513,7.848-7.847v-32.613
				c0-4.334-3.513-7.848-7.848-7.848H307.098c-4.334,0-7.848,3.514-7.848,7.848v32.613
				C299.25,1694.779,302.764,1698.293,307.098,1698.293z"/>
			<path style="fill:#B84C42;" d="M2650.911,1643.114h55.107c4.334,0,7.847-3.514,7.847-7.848v-32.613
				c0-4.334-3.513-7.848-7.847-7.848h-55.107c-4.334,0-7.847,3.514-7.847,7.848v32.613
				C2643.063,1639.6,2646.577,1643.114,2650.911,1643.114z"/>
			<path style="fill:#B84C42;" d="M2499.667,1643.114h127.939c4.334,0,7.847-3.514,7.847-7.848v-32.613
				c0-4.334-3.513-7.848-7.847-7.848h-127.939c-4.334,0-7.848,3.514-7.848,7.848v32.613
				C2491.82,1639.6,2495.333,1643.114,2499.667,1643.114z"/>
			<path style="fill:#B84C42;" d="M2348.424,1643.114h127.939c4.334,0,7.848-3.514,7.848-7.848v-32.613
				c0-4.334-3.514-7.848-7.848-7.848h-127.939c-4.334,0-7.848,3.514-7.848,7.848v32.613
				C2340.576,1639.6,2344.089,1643.114,2348.424,1643.114z"/>
			<path style="fill:#B84C42;" d="M2197.18,1643.114h127.939c4.334,0,7.848-3.514,7.848-7.848v-32.613
				c0-4.334-3.514-7.848-7.848-7.848H2197.18c-4.334,0-7.847,3.514-7.847,7.848v32.613
				C2189.332,1639.6,2192.846,1643.114,2197.18,1643.114z"/>
			<path style="fill:#B84C42;" d="M2045.936,1643.114h127.939c4.334,0,7.847-3.514,7.847-7.848v-32.613
				c0-4.334-3.513-7.848-7.847-7.848h-127.939c-4.334,0-7.848,3.514-7.848,7.848v32.613
				C2038.089,1639.6,2041.602,1643.114,2045.936,1643.114z"/>
			<path style="fill:#B84C42;" d="M1894.692,1643.114h127.939c4.334,0,7.848-3.514,7.848-7.848v-32.613
				c0-4.334-3.513-7.848-7.848-7.848h-127.939c-4.334,0-7.848,3.514-7.848,7.848v32.613
				C1886.845,1639.6,1890.358,1643.114,1894.692,1643.114z"/>
			<path style="fill:#B84C42;" d="M1743.449,1643.114h127.939c4.334,0,7.848-3.514,7.848-7.848v-32.613
				c0-4.334-3.514-7.848-7.848-7.848h-127.939c-4.334,0-7.848,3.514-7.848,7.848v32.613
				C1735.601,1639.6,1739.115,1643.114,1743.449,1643.114z"/>
			<path style="fill:#B84C42;" d="M1592.205,1643.114h127.939c4.334,0,7.848-3.514,7.848-7.848v-32.613
				c0-4.334-3.514-7.848-7.848-7.848h-127.939c-4.334,0-7.848,3.514-7.848,7.848v32.613
				C1584.357,1639.6,1587.871,1643.114,1592.205,1643.114z"/>
			<path style="fill:#B84C42;" d="M1440.01,1643.114h127.939c4.334,0,7.848-3.514,7.848-7.848v-32.613
				c0-4.334-3.513-7.848-7.848-7.848H1440.01c-4.334,0-7.848,3.514-7.848,7.848v32.613
				C1432.162,1639.6,1435.676,1643.114,1440.01,1643.114z"/>
			<path style="fill:#B84C42;" d="M1288.766,1643.114h127.939c4.334,0,7.848-3.514,7.848-7.848v-32.613
				c0-4.334-3.513-7.848-7.848-7.848h-127.939c-4.334,0-7.848,3.514-7.848,7.848v32.613
				C1280.919,1639.6,1284.432,1643.114,1288.766,1643.114z"/>
			<path style="fill:#B84C42;" d="M1137.523,1643.114h127.939c4.334,0,7.847-3.514,7.847-7.848v-32.613
				c0-4.334-3.513-7.848-7.847-7.848h-127.939c-4.334,0-7.848,3.514-7.848,7.848v32.613
				C1129.675,1639.6,1133.188,1643.114,1137.523,1643.114z"/>
			<path style="fill:#B84C42;" d="M986.279,1643.114h127.939c4.334,0,7.848-3.514,7.848-7.848v-32.613
				c0-4.334-3.514-7.848-7.848-7.848H986.279c-4.334,0-7.848,3.514-7.848,7.848v32.613
				C978.431,1639.6,981.945,1643.114,986.279,1643.114z"/>
			<path style="fill:#B84C42;" d="M835.035,1643.114h127.939c4.334,0,7.848-3.514,7.848-7.848v-32.613
				c0-4.334-3.513-7.848-7.848-7.848H835.035c-4.334,0-7.848,3.514-7.848,7.848v32.613
				C827.188,1639.6,830.701,1643.114,835.035,1643.114z"/>
			<path style="fill:#B84C42;" d="M683.792,1643.114H811.73c4.334,0,7.848-3.514,7.848-7.848v-32.613
				c0-4.334-3.513-7.848-7.848-7.848H683.792c-4.334,0-7.848,3.514-7.848,7.848v32.613
				C675.944,1639.6,679.457,1643.114,683.792,1643.114z"/>
			<path style="fill:#B84C42;" d="M532.548,1643.114h127.939c4.334,0,7.848-3.514,7.848-7.848v-32.613
				c0-4.334-3.513-7.848-7.848-7.848H532.548c-4.334,0-7.848,3.514-7.848,7.848v32.613
				C524.7,1639.6,528.214,1643.114,532.548,1643.114z"/>
			<path style="fill:#B84C42;" d="M381.304,1643.114h127.939c4.334,0,7.848-3.514,7.848-7.848v-32.613
				c0-4.334-3.513-7.848-7.848-7.848H381.304c-4.334,0-7.848,3.514-7.848,7.848v32.613
				C373.456,1639.6,376.97,1643.114,381.304,1643.114z"/>
			<path style="fill:#B84C42;" d="M305.177,1643.114h55.107c4.334,0,7.848-3.514,7.848-7.848v-32.613
				c0-4.334-3.513-7.848-7.848-7.848h-55.107c-4.334,0-7.847,3.514-7.847,7.848v32.613
				C297.329,1639.6,300.843,1643.114,305.177,1643.114z"/>
			<path style="fill:#B84C42;" d="M2576.705,1588.358h127.939c4.334,0,7.847-3.514,7.847-7.848v-32.613
				c0-4.334-3.513-7.848-7.847-7.848h-127.939c-4.334,0-7.847,3.513-7.847,7.848v32.613
				C2568.857,1584.845,2572.371,1588.358,2576.705,1588.358z"/>
			<path style="fill:#B84C42;" d="M2425.461,1588.358H2553.4c4.334,0,7.847-3.514,7.847-7.848v-32.613
				c0-4.334-3.513-7.848-7.847-7.848h-127.939c-4.334,0-7.847,3.513-7.847,7.848v32.613
				C2417.614,1584.845,2421.127,1588.358,2425.461,1588.358z"/>
			<path style="fill:#B84C42;" d="M2274.218,1588.358h127.939c4.334,0,7.847-3.514,7.847-7.848v-32.613
				c0-4.334-3.513-7.848-7.847-7.848h-127.939c-4.334,0-7.847,3.513-7.847,7.848v32.613
				C2266.37,1584.845,2269.883,1588.358,2274.218,1588.358z"/>
			<path style="fill:#B84C42;" d="M2122.974,1588.358h127.939c4.334,0,7.848-3.514,7.848-7.848v-32.613
				c0-4.334-3.514-7.848-7.848-7.848h-127.939c-4.334,0-7.848,3.513-7.848,7.848v32.613
				C2115.126,1584.845,2118.64,1588.358,2122.974,1588.358z"/>
			<path style="fill:#B84C42;" d="M1971.73,1588.358h127.939c4.334,0,7.848-3.514,7.848-7.848v-32.613
				c0-4.334-3.514-7.848-7.848-7.848H1971.73c-4.334,0-7.848,3.513-7.848,7.848v32.613
				C1963.882,1584.845,1967.396,1588.358,1971.73,1588.358z"/>
			<path style="fill:#B84C42;" d="M1820.486,1588.358h127.939c4.334,0,7.848-3.514,7.848-7.848v-32.613
				c0-4.334-3.514-7.848-7.848-7.848h-127.939c-4.334,0-7.848,3.513-7.848,7.848v32.613
				C1812.639,1584.845,1816.152,1588.358,1820.486,1588.358z"/>
			<path style="fill:#B84C42;" d="M1669.243,1588.358h127.939c4.334,0,7.848-3.514,7.848-7.848v-32.613
				c0-4.334-3.513-7.848-7.848-7.848h-127.939c-4.334,0-7.848,3.513-7.848,7.848v32.613
				C1661.395,1584.845,1664.909,1588.358,1669.243,1588.358z"/>
			<path style="fill:#B84C42;" d="M1517.999,1588.358h127.939c4.334,0,7.848-3.514,7.848-7.848v-32.613
				c0-4.334-3.514-7.848-7.848-7.848h-127.939c-4.334,0-7.848,3.513-7.848,7.848v32.613
				C1510.151,1584.845,1513.665,1588.358,1517.999,1588.358z"/>
			<path style="fill:#B84C42;" d="M1365.804,1588.358h127.939c4.334,0,7.848-3.514,7.848-7.848v-32.613
				c0-4.334-3.513-7.848-7.848-7.848h-127.939c-4.334,0-7.847,3.513-7.847,7.848v32.613
				C1357.957,1584.845,1361.47,1588.358,1365.804,1588.358z"/>
			<path style="fill:#B84C42;" d="M1214.56,1588.358h127.939c4.334,0,7.848-3.514,7.848-7.848v-32.613
				c0-4.334-3.513-7.848-7.848-7.848H1214.56c-4.334,0-7.848,3.513-7.848,7.848v32.613
				C1206.713,1584.845,1210.226,1588.358,1214.56,1588.358z"/>
			<path style="fill:#B84C42;" d="M1063.317,1588.358h127.939c4.334,0,7.848-3.514,7.848-7.848v-32.613
				c0-4.334-3.513-7.848-7.848-7.848h-127.939c-4.334,0-7.848,3.513-7.848,7.848v32.613
				C1055.469,1584.845,1058.983,1588.358,1063.317,1588.358z"/>
			<path style="fill:#B84C42;" d="M912.073,1588.358h127.939c4.334,0,7.847-3.514,7.847-7.848v-32.613
				c0-4.334-3.513-7.848-7.847-7.848H912.073c-4.334,0-7.848,3.513-7.848,7.848v32.613
				C904.225,1584.845,907.739,1588.358,912.073,1588.358z"/>
			<path style="fill:#B84C42;" d="M760.829,1588.358h127.939c4.334,0,7.848-3.514,7.848-7.848v-32.613
				c0-4.334-3.514-7.848-7.848-7.848H760.829c-4.334,0-7.848,3.513-7.848,7.848v32.613
				C752.982,1584.845,756.495,1588.358,760.829,1588.358z"/>
			<path style="fill:#B84C42;" d="M609.586,1588.358h127.939c4.334,0,7.848-3.514,7.848-7.848v-32.613
				c0-4.334-3.513-7.848-7.848-7.848H609.586c-4.334,0-7.848,3.513-7.848,7.848v32.613
				C601.738,1584.845,605.251,1588.358,609.586,1588.358z"/>
			<path style="fill:#B84C42;" d="M458.342,1588.358h127.939c4.334,0,7.848-3.514,7.848-7.848v-32.613
				c0-4.334-3.513-7.848-7.848-7.848H458.342c-4.334,0-7.848,3.513-7.848,7.848v32.613
				C450.494,1584.845,454.008,1588.358,458.342,1588.358z"/>
			<path style="fill:#B84C42;" d="M307.098,1588.358h127.939c4.334,0,7.848-3.514,7.848-7.848v-32.613
				c0-4.334-3.513-7.848-7.848-7.848H307.098c-4.334,0-7.848,3.513-7.848,7.848v32.613
				C299.25,1584.845,302.764,1588.358,307.098,1588.358z"/>
			<path style="fill:#B84C42;" d="M2650.911,1533.179h55.107c4.334,0,7.847-3.513,7.847-7.848v-32.613
				c0-4.334-3.513-7.848-7.847-7.848h-55.107c-4.334,0-7.847,3.514-7.847,7.848v32.613
				C2643.063,1529.666,2646.577,1533.179,2650.911,1533.179z"/>
			<path style="fill:#B84C42;" d="M2499.667,1533.179h127.939c4.334,0,7.847-3.513,7.847-7.848v-32.613
				c0-4.334-3.513-7.848-7.847-7.848h-127.939c-4.334,0-7.848,3.514-7.848,7.848v32.613
				C2491.82,1529.666,2495.333,1533.179,2499.667,1533.179z"/>
			<path style="fill:#B84C42;" d="M2348.424,1533.179h127.939c4.334,0,7.848-3.513,7.848-7.848v-32.613
				c0-4.334-3.514-7.848-7.848-7.848h-127.939c-4.334,0-7.848,3.514-7.848,7.848v32.613
				C2340.576,1529.666,2344.089,1533.179,2348.424,1533.179z"/>
			<path style="fill:#B84C42;" d="M2197.18,1533.179h127.939c4.334,0,7.848-3.513,7.848-7.848v-32.613
				c0-4.334-3.514-7.848-7.848-7.848H2197.18c-4.334,0-7.847,3.514-7.847,7.848v32.613
				C2189.332,1529.666,2192.846,1533.179,2197.18,1533.179z"/>
			<path style="fill:#B84C42;" d="M2045.936,1533.179h127.939c4.334,0,7.847-3.513,7.847-7.848v-32.613
				c0-4.334-3.513-7.848-7.847-7.848h-127.939c-4.334,0-7.848,3.514-7.848,7.848v32.613
				C2038.089,1529.666,2041.602,1533.179,2045.936,1533.179z"/>
			<path style="fill:#B84C42;" d="M1894.692,1533.179h127.939c4.334,0,7.848-3.513,7.848-7.848v-32.613
				c0-4.334-3.513-7.848-7.848-7.848h-127.939c-4.334,0-7.848,3.514-7.848,7.848v32.613
				C1886.845,1529.666,1890.358,1533.179,1894.692,1533.179z"/>
			<path style="fill:#B84C42;" d="M1743.449,1533.179h127.939c4.334,0,7.848-3.513,7.848-7.848v-32.613
				c0-4.334-3.514-7.848-7.848-7.848h-127.939c-4.334,0-7.848,3.514-7.848,7.848v32.613
				C1735.601,1529.666,1739.115,1533.179,1743.449,1533.179z"/>
			<path style="fill:#B84C42;" d="M1592.205,1533.179h127.939c4.334,0,7.848-3.513,7.848-7.848v-32.613
				c0-4.334-3.514-7.848-7.848-7.848h-127.939c-4.334,0-7.848,3.514-7.848,7.848v32.613
				C1584.357,1529.666,1587.871,1533.179,1592.205,1533.179z"/>
			<path style="fill:#B84C42;" d="M1440.01,1533.179h127.939c4.334,0,7.848-3.513,7.848-7.848v-32.613
				c0-4.334-3.513-7.848-7.848-7.848H1440.01c-4.334,0-7.848,3.514-7.848,7.848v32.613
				C1432.162,1529.666,1435.676,1533.179,1440.01,1533.179z"/>
			<path style="fill:#B84C42;" d="M1288.766,1533.179h127.939c4.334,0,7.848-3.513,7.848-7.848v-32.613
				c0-4.334-3.513-7.848-7.848-7.848h-127.939c-4.334,0-7.848,3.514-7.848,7.848v32.613
				C1280.919,1529.666,1284.432,1533.179,1288.766,1533.179z"/>
			<path style="fill:#B84C42;" d="M1137.523,1533.179h127.939c4.334,0,7.847-3.513,7.847-7.848v-32.613
				c0-4.334-3.513-7.848-7.847-7.848h-127.939c-4.334,0-7.848,3.514-7.848,7.848v32.613
				C1129.675,1529.666,1133.188,1533.179,1137.523,1533.179z"/>
			<path style="fill:#B84C42;" d="M986.279,1533.179h127.939c4.334,0,7.848-3.513,7.848-7.848v-32.613
				c0-4.334-3.514-7.848-7.848-7.848H986.279c-4.334,0-7.848,3.514-7.848,7.848v32.613
				C978.431,1529.666,981.945,1533.179,986.279,1533.179z"/>
			<path style="fill:#B84C42;" d="M835.035,1533.179h127.939c4.334,0,7.848-3.513,7.848-7.848v-32.613
				c0-4.334-3.513-7.848-7.848-7.848H835.035c-4.334,0-7.848,3.514-7.848,7.848v32.613
				C827.188,1529.666,830.701,1533.179,835.035,1533.179z"/>
			<path style="fill:#B84C42;" d="M683.792,1533.179H811.73c4.334,0,7.848-3.513,7.848-7.848v-32.613
				c0-4.334-3.513-7.848-7.848-7.848H683.792c-4.334,0-7.848,3.514-7.848,7.848v32.613
				C675.944,1529.666,679.457,1533.179,683.792,1533.179z"/>
			<path style="fill:#B84C42;" d="M532.548,1533.179h127.939c4.334,0,7.848-3.513,7.848-7.848v-32.613
				c0-4.334-3.513-7.848-7.848-7.848H532.548c-4.334,0-7.848,3.514-7.848,7.848v32.613
				C524.7,1529.666,528.214,1533.179,532.548,1533.179z"/>
			<path style="fill:#B84C42;" d="M381.304,1533.179h127.939c4.334,0,7.848-3.513,7.848-7.848v-32.613
				c0-4.334-3.513-7.848-7.848-7.848H381.304c-4.334,0-7.848,3.514-7.848,7.848v32.613
				C373.456,1529.666,376.97,1533.179,381.304,1533.179z"/>
			<path style="fill:#B84C42;" d="M305.177,1533.179h55.107c4.334,0,7.848-3.513,7.848-7.848v-32.613
				c0-4.334-3.513-7.848-7.848-7.848h-55.107c-4.334,0-7.847,3.514-7.847,7.848v32.613
				C297.329,1529.666,300.843,1533.179,305.177,1533.179z"/>
			<path style="fill:#B84C42;" d="M2576.705,1477.049h127.939c4.334,0,7.847-3.513,7.847-7.847v-32.613
				c0-4.334-3.513-7.848-7.847-7.848h-127.939c-4.334,0-7.847,3.514-7.847,7.848v32.613
				C2568.857,1473.536,2572.371,1477.049,2576.705,1477.049z"/>
			<path style="fill:#B84C42;" d="M2425.461,1477.049H2553.4c4.334,0,7.847-3.513,7.847-7.847v-32.613
				c0-4.334-3.513-7.848-7.847-7.848h-127.939c-4.334,0-7.847,3.514-7.847,7.848v32.613
				C2417.614,1473.536,2421.127,1477.049,2425.461,1477.049z"/>
			<path style="fill:#B84C42;" d="M2274.218,1477.049h127.939c4.334,0,7.847-3.513,7.847-7.847v-32.613
				c0-4.334-3.513-7.848-7.847-7.848h-127.939c-4.334,0-7.847,3.514-7.847,7.848v32.613
				C2266.37,1473.536,2269.883,1477.049,2274.218,1477.049z"/>
			<path style="fill:#B84C42;" d="M2122.974,1477.049h127.939c4.334,0,7.848-3.513,7.848-7.847v-32.613
				c0-4.334-3.514-7.848-7.848-7.848h-127.939c-4.334,0-7.848,3.514-7.848,7.848v32.613
				C2115.126,1473.536,2118.64,1477.049,2122.974,1477.049z"/>
			<path style="fill:#B84C42;" d="M1971.73,1477.049h127.939c4.334,0,7.848-3.513,7.848-7.847v-32.613
				c0-4.334-3.514-7.848-7.848-7.848H1971.73c-4.334,0-7.848,3.514-7.848,7.848v32.613
				C1963.882,1473.536,1967.396,1477.049,1971.73,1477.049z"/>
			<path style="fill:#B84C42;" d="M1820.486,1477.049h127.939c4.334,0,7.848-3.513,7.848-7.847v-32.613
				c0-4.334-3.514-7.848-7.848-7.848h-127.939c-4.334,0-7.848,3.514-7.848,7.848v32.613
				C1812.639,1473.536,1816.152,1477.049,1820.486,1477.049z"/>
			<path style="fill:#B84C42;" d="M1669.243,1477.049h127.939c4.334,0,7.848-3.513,7.848-7.847v-32.613
				c0-4.334-3.513-7.848-7.848-7.848h-127.939c-4.334,0-7.848,3.514-7.848,7.848v32.613
				C1661.395,1473.536,1664.909,1477.049,1669.243,1477.049z"/>
			<path style="fill:#B84C42;" d="M1517.999,1477.049h127.939c4.334,0,7.848-3.513,7.848-7.847v-32.613
				c0-4.334-3.514-7.848-7.848-7.848h-127.939c-4.334,0-7.848,3.514-7.848,7.848v32.613
				C1510.151,1473.536,1513.665,1477.049,1517.999,1477.049z"/>
			<path style="fill:#B84C42;" d="M1365.804,1477.049h127.939c4.334,0,7.848-3.513,7.848-7.847v-32.613
				c0-4.334-3.513-7.848-7.848-7.848h-127.939c-4.334,0-7.847,3.514-7.847,7.848v32.613
				C1357.957,1473.536,1361.47,1477.049,1365.804,1477.049z"/>
			<path style="fill:#B84C42;" d="M1214.56,1477.049h127.939c4.334,0,7.848-3.513,7.848-7.847v-32.613
				c0-4.334-3.513-7.848-7.848-7.848H1214.56c-4.334,0-7.848,3.514-7.848,7.848v32.613
				C1206.713,1473.536,1210.226,1477.049,1214.56,1477.049z"/>
			<path style="fill:#B84C42;" d="M1063.317,1477.049h127.939c4.334,0,7.848-3.513,7.848-7.847v-32.613
				c0-4.334-3.513-7.848-7.848-7.848h-127.939c-4.334,0-7.848,3.514-7.848,7.848v32.613
				C1055.469,1473.536,1058.983,1477.049,1063.317,1477.049z"/>
			<path style="fill:#B84C42;" d="M912.073,1477.049h127.939c4.334,0,7.847-3.513,7.847-7.847v-32.613
				c0-4.334-3.513-7.848-7.847-7.848H912.073c-4.334,0-7.848,3.514-7.848,7.848v32.613
				C904.225,1473.536,907.739,1477.049,912.073,1477.049z"/>
			<path style="fill:#B84C42;" d="M760.829,1477.049h127.939c4.334,0,7.848-3.513,7.848-7.847v-32.613
				c0-4.334-3.514-7.848-7.848-7.848H760.829c-4.334,0-7.848,3.514-7.848,7.848v32.613
				C752.982,1473.536,756.495,1477.049,760.829,1477.049z"/>
			<path style="fill:#B84C42;" d="M609.586,1477.049h127.939c4.334,0,7.848-3.513,7.848-7.847v-32.613
				c0-4.334-3.513-7.848-7.848-7.848H609.586c-4.334,0-7.848,3.514-7.848,7.848v32.613
				C601.738,1473.536,605.251,1477.049,609.586,1477.049z"/>
			<path style="fill:#B84C42;" d="M458.342,1477.049h127.939c4.334,0,7.848-3.513,7.848-7.847v-32.613
				c0-4.334-3.513-7.848-7.848-7.848H458.342c-4.334,0-7.848,3.514-7.848,7.848v32.613
				C450.494,1473.536,454.008,1477.049,458.342,1477.049z"/>
			<path style="fill:#B84C42;" d="M307.098,1477.049h127.939c4.334,0,7.848-3.513,7.848-7.847v-32.613
				c0-4.334-3.513-7.848-7.848-7.848H307.098c-4.334,0-7.848,3.514-7.848,7.848v32.613
				C299.25,1473.536,302.764,1477.049,307.098,1477.049z"/>
			<path style="fill:#B84C42;" d="M2650.911,1421.87h55.107c4.334,0,7.847-3.514,7.847-7.848v-32.613
				c0-4.334-3.513-7.848-7.847-7.848h-55.107c-4.334,0-7.847,3.513-7.847,7.848v32.613
				C2643.063,1418.357,2646.577,1421.87,2650.911,1421.87z"/>
			<path style="fill:#B84C42;" d="M2499.667,1421.87h127.939c4.334,0,7.847-3.514,7.847-7.848v-32.613
				c0-4.334-3.513-7.848-7.847-7.848h-127.939c-4.334,0-7.848,3.513-7.848,7.848v32.613
				C2491.82,1418.357,2495.333,1421.87,2499.667,1421.87z"/>
			<path style="fill:#B84C42;" d="M2348.424,1421.87h127.939c4.334,0,7.848-3.514,7.848-7.848v-32.613
				c0-4.334-3.514-7.848-7.848-7.848h-127.939c-4.334,0-7.848,3.513-7.848,7.848v32.613
				C2340.576,1418.357,2344.089,1421.87,2348.424,1421.87z"/>
			<path style="fill:#B84C42;" d="M2197.18,1421.87h127.939c4.334,0,7.848-3.514,7.848-7.848v-32.613
				c0-4.334-3.514-7.848-7.848-7.848H2197.18c-4.334,0-7.847,3.513-7.847,7.848v32.613
				C2189.332,1418.357,2192.846,1421.87,2197.18,1421.87z"/>
			<path style="fill:#B84C42;" d="M2045.936,1421.87h127.939c4.334,0,7.847-3.514,7.847-7.848v-32.613
				c0-4.334-3.513-7.848-7.847-7.848h-127.939c-4.334,0-7.848,3.513-7.848,7.848v32.613
				C2038.089,1418.357,2041.602,1421.87,2045.936,1421.87z"/>
			<path style="fill:#B84C42;" d="M1894.692,1421.87h127.939c4.334,0,7.848-3.514,7.848-7.848v-32.613
				c0-4.334-3.513-7.848-7.848-7.848h-127.939c-4.334,0-7.848,3.513-7.848,7.848v32.613
				C1886.845,1418.357,1890.358,1421.87,1894.692,1421.87z"/>
			<path style="fill:#B84C42;" d="M1743.449,1421.87h127.939c4.334,0,7.848-3.514,7.848-7.848v-32.613
				c0-4.334-3.514-7.848-7.848-7.848h-127.939c-4.334,0-7.848,3.513-7.848,7.848v32.613
				C1735.601,1418.357,1739.115,1421.87,1743.449,1421.87z"/>
			<path style="fill:#B84C42;" d="M1592.205,1421.87h127.939c4.334,0,7.848-3.514,7.848-7.848v-32.613
				c0-4.334-3.514-7.848-7.848-7.848h-127.939c-4.334,0-7.848,3.513-7.848,7.848v32.613
				C1584.357,1418.357,1587.871,1421.87,1592.205,1421.87z"/>
			<path style="fill:#B84C42;" d="M1440.01,1421.87h127.939c4.334,0,7.848-3.514,7.848-7.848v-32.613
				c0-4.334-3.513-7.848-7.848-7.848H1440.01c-4.334,0-7.848,3.513-7.848,7.848v32.613
				C1432.162,1418.357,1435.676,1421.87,1440.01,1421.87z"/>
			<rect x="284.134" y="1342.191" style="fill:#B84C42;" width="0" height="0"/>
		</g>
		<path style="fill:#283250;" d="M2762.255,1812.635H235.745c-1.529,0-2.779-1.251-2.779-2.78l0,0c0-1.529,1.251-2.78,2.779-2.78
			h2526.509c1.529,0,2.78,1.251,2.78,2.78l0,0C2765.034,1811.384,2763.783,1812.635,2762.255,1812.635z"/>
	</g>
</g>
</svg>
